<svg xmlns="http://www.w3.org/2000/svg" viewBox="0 0 1786 1300"><g fill="#fff"><path d="M1786 0v1761H0V0zM891.54 165.62q2.5.79 3.92 1.41 52.04 22.75 53.59 23.41 5.05 2.15 6.53-2.68a2.13 2.09-42.1 0 0 .06-.99q-.31-1.69-1.35-4.07-22.78-52.49-41.5-99.24-4.82-12.04-13.53-22.42l-4.21-17.34q-.83-3.43-4.13-2.72a2.4 2.4 5 0 0-1.69 1.41l-60.14 145.38a1.83 1.83 0 0 0 1.71 2.53q.17 0 1.31-.46 5.54-2.24 53.82-22.16 3.42-1.42 5.61-2.06m1.98 327.65 51-23.97q2.8-.8 5.87-1.4c7.11-1.38 6.23-6.26 4.83-12.25q-14.95-64.2-21.13-95.69-10.78-54.98-11.29-57.52-3.35-16.58-5.14-24.11c-8.5-35.76-16.01-68.19-21.74-101.25q-.62-3.55-3.98-3.69c-2.55-.11-4.24 2.29-4.8 4.5a192 192 0 0 0-3.12 13.82c-9.54 59-20.65 109.84-34.34 172.01q-2.75 12.48-4.75 22.75-8.88 45.78-17.84 92.64-5.58 29.2-15.39 70.19-.93 3.87 3.11 4.16a1.97 1.96 30.4 0 0 1.23-.32q2.42-1.58 5.57-4.03c11.94-9.29 24.57-19.93 37.04-30.46 5.7-4.82 12.94-8.87 19.72-12.78q6.35-3.66 15.15-12.6m247.15 19.05q8.43 13.04 19.21 19.31 6.65 3.86 9.6 5.1 17.33 7.3 37.78 6.93 24.67-.45 49.97-8.97c16.47-5.55 31.13-11.71 47.27-15.87q29.68-6.66 60.02-4.05 20.27 1.74 37.44 8.31 4.23 1.62 21.5 9.16c24.59 10.72 52.62 19.12 79.54 20.19q9.59.38 22.08-.93c5.47-.58 8.69-2.89 8.72-8.5q.04-6.88-6.17-8.79a3.6 3.43-37.6 0 0-1.34-.14q-3.73.35-18.12 1.05-20.68 1.01-38.64-5.15-12.47-4.28-17.23-6.29-10.99-4.65-11.49-4.77c-2.8-.67-5.13-2.63-7.82-3.33-2.68-.69-5.13-2.37-8.17-3.54q-6.94-2.66-14.92-5.85-2.9-1.16-11.59-4.21-25.83-9.05-53.56-8.13-32.03 1.07-60.78 12.2l-23.33 9.03q-24.29 9.32-50.11 10.75-17.21.96-34.36-5.92a3.82 3.31 67.5 0 1-.6-.3q-.78-.5-5.49-3.2c-16.95-9.72-24-30.28-22.49-48.92 1.48-18.33 6.2-31.8 14.39-46.54q7.23-13.01 11.29-19.95c18.74-31.95 23.13-70.95 14.25-106.31-9.56-38.08-33.99-71.39-60-100.47l-12.19-13.63c-2.84-3.18-6.61-6.62-10.92-4.72q-3.13 1.38-4.53 4.5-3.2 7.09 2.48 12.77 21.39 21.36 36.77 43.32 8.67 12.38 14.6 23.21 8.42 15.38 12.19 24.63c10.41 25.53 10.28 53.27 3.83 79.97a112 112 0 0 1-11.37 28.61q-11.03 19.07-18.29 34.68-6.56 14.11-10.17 28.34-2.37 9.33-2.05 14.86c.8 13.92 4.97 29.43 12.8 41.56m69.26-91.55q15.39 9.7 30.48 19.07 5.64 3.51 10.52 1.4 2.84-1.23 7.21-6.99 13.24-17.44 26.89-34.71 7.88-5.18 16.94-5.72c1.75-.1 5.05.34 6.41 1.42 4.34 3.43 6.51 6.81 5.1 12.56q-.47 1.9-2.38 4.75-17.39 25.91-19.76 29.76c-3.62 5.89-6.1 9.95-8.52 16.7-2.88 8.01 3.61 15.43 11.41 16.37q3.67.44 10.63-1.74c3.86-1.21 11.29-3.65 16.57-4.65q22.82-4.35 44.58-3.69 14.45.43 49.99 2.44c10.33.59 20.99-1.24 27.52-9.69q5.32-6.88 6.1-14.89c.33-3.29-2.9-6.77-6.42-6.27q-2.39.33-3.26 1.29-13.14 14.38-32.66 12.74c-3.81-.32-6.16-.42-9.32-1.07-16.57-3.39-32.82-6.01-49.95-4.56q-11.92 1.01-28.84 6.49a78 78 0 0 1-8.92 2.34q-2.36.47-3.27-1.85a1.01 1-44.6 0 1 .01-.76l1.96-4.76a.45.12-75.1 0 1 .04-.07c5.49-8.1 12.38-16.61 17.24-25.15 7.34-12.89 7.29-30.66-5.42-40.38q-6-4.59-13.83-5.13c-16.83-1.14-30.15 6.88-42.15 18.07-7.54 4.34-12.86 10.51-19.02 16.41q-8.37 8.01-21.98 8.13-1.69.02-3.55-2.06a3.3 3.14-77.9 0 1-.63-1.03l-1.48-3.99q15.68-22.39 22.13-32.25 2.63-4.02 6.71-11.15 3.47-6.06 5.37-11.68 11.42-33.75 9.62-67.57-.96-18.07-5.77-36.23-4.56-17.25-12.57-34.38-5.2-11.12-14.53-22.3-2.98-3.56-4.88-4.28c-4.2-1.59-9.8.68-10.89 5.16-.39 1.6.96 5.9 1.56 6.94q1.73 3.01 7.06 12.61c3.84 6.93 7.79 15.95 9.92 20.91 10.46 24.37 15.79 51.93 12.3 78.17q-3.15 23.72-14.5 45.28-1.83 3.5-3.28 6.33-1.65 3.23-3.41 6.26l-17.61 30.27c-2.48 4.29-3.66 10.53.66 14.29q2.02 1.76 3.87 2.84m-182.58-210.9c-5.21-5.25-11.32-3.4-13.15 3.83-1.12 4.4 1.48 7.94 4.49 10.88q27.89 27.24 49.06 55.34c6.88 9.13 13.46 19.1 18.25 28.56q15.44 30.51 13.52 65.03c-1.45 25.96-9.39 51.12-19.4 74.86q-5.8 13.73-6.37 15.14c-6.59 15.96-7.61 34.13-6.75 51.66 2.64 53.31 48 76.85 95.4 80.93q31.65 2.72 62.79-4.7 3.67-.88 77.33-19.32 5.83-1.46 8.5-1.48 42.9-.43 82.84 15.31 15.43 6.08 25.18 10.81 17.81 8.63 45.41 23.75c16.92 9.26 30.81 15.58 46.79 18.33q19.99 3.44 35.52 2.98 5.66-.17 8.17-5.38c2.02-4.2.27-8.43-4.39-9.53-4.61-1.09-10.49-1.15-15.75-1.91q-30.09-4.38-58.26-17.28-17.06-7.8-19.81-9.37c-7.56-4.31-19.14-9.71-30.74-15.95q-16.34-8.79-28.62-13.68-56.74-22.57-116.65-7.69c-33.84 8.4-67.96 20.29-103.68 20.99q-26.87.52-52.58-10.17a67 67 0 0 1-39.25-45.46c-3.65-14.49-3.37-27.81-.08-42.08q1.51-6.57 7.28-21.97 12.04-32.12 17.39-48.98 6.86-21.6 7.38-41.33c1.07-40.01-17.08-77.38-41.34-108.59-15.21-19.57-30.26-35.17-48.48-53.53m-126.24 900.05q.04-.04.12-.43 2.55-11.78 5.07-28.5 1.22-8.11-4.25-14.29-6.01-6.79-15.04-15.62-6.4-6.25-14.89-15.74-2.63-2.94-17.87-20.51-11.62-13.39-22.74-32.9-31.72-55.65-39.76-117.94c-7.47-57.85.31-115.69 23.11-168.93q19.91-46.48 54.41-86.3a341 341 0 0 1 28.16-28.34q48.59-43.69 108.76-67.22c3.51-1.37 4.46 1.6 4.39 4.6-.45 19.98 1.18 40.27 7.8 58.6 20.51 56.79 78.15 72.41 132.62 74 11.37.33 21.98-1.34 34.89-4.17q18.53-4.06 48.49-9.34 34.33-6.06 67.86-5.36 37.03.78 71.47 15.37l8.23 3.48q4.66 2.08 7.99 4.01c4.97 2.86 9.32 4.87 15.27 8.35q19.26 11.25 41.61 21.93 8.58 4.1 23.32 9.62 36.56 13.69 74.12 12.96c4.92-.09 8.84.1 10.33-4.87q1.29-4.3-1.02-8.05c-1.34-2.17-3.4-2.8-5.81-2.88q-15.22-.54-18.98-.78-29.26-1.83-54.42-12.99c-12.51-5.55-32.18-16.64-44.1-22.55q-16.74-8.31-22.85-11.41c-18.63-9.45-38.1-17.62-56.21-23.13q-18.3-5.57-40.53-8.49-18.37-2.41-37.21.05c-20.82 2.71-34.46 6.17-60.88 11.95-34.37 7.52-71.76 12.77-105.84 4.41q-20.9-5.12-36.26-14.78c-27.87-17.51-42.1-48.83-43.32-81.75-.51-13.86 2.72-29.19 6.91-42.24q4.23-13.18 11.46-34.68 20.47-60.82-6.94-118.71c-14.75-31.15-38.6-57.54-66.24-77.55-3.39-2.46-7.16-5.81-11.07-2.43q-4.69 4.06-3.32 9.25.73 2.77 6.35 7.92 10.15 9.28 24.65 23.27c18.86 18.19 33.67 39.73 41.87 64.4 11.29 33.96 7.86 70.5-7.35 102.76-1.4 2.97-5.53 4.22-8.04 4.96-31.35 9.17-61.24 18.39-87.7 31.54q-57.25 28.43-103.49 76.5-28.5 29.63-53.92 57.84-17.97 19.95-23.79 27.21c-26.37 32.94-52.76 66.54-81.98 96.11q-11.6 11.75-20 19.66c-23.37 21.98-50.59 42.37-78.87 58.43-55.47 31.51-119.83 46.45-183.16 44.27q-32.33-1.11-65.73-10.16-15.1-4.09-37.32-13.36-19.06-7.94-36.39-16.19-14.43-6.88-23.91-12.14-10.89-6.05-14.06-7.38a1.7 1.7 0 0 0-1.95.51q-1.63 2.08.54 4.13 79.79 75.68 188.8 86.06c35.72 3.4 72.38 1.98 106.24-9q16.71-5.43 47.17-16.6 23.24-8.52 37.88-16.09 48.96-25.31 89.75-63.24l11.66-10.84q7.41-6.89 11.32-11.18c6.05-6.63 12.38-12.86 19.76-21.21q26.13-29.56 48.64-61.86 1.16-1.65 3.3-.88a1.92 1.9-79.2 0 1 1.26 1.87q-.07 1.67-.92 4.34-13.57 42.66-17.26 85.46-6.69 77.56 19.93 149.56 9.99 27.04 22.77 50.23 10.03 18.21 16.93 28.83c22.75 35.04 54.04 64.98 88.69 88.81a1.1 1.1 0 0 0 1.49-.24M552.5 421.85l-1.55.13a2.48 2.45 55.4 0 1-1.26-.24c-10.94-5.34-22.52-12.6-28.74-15.99q-2.6-1.41-4.78-2.83c-2.26-1.47-6.52-4.32-8.22-1.11-2.18 4.1 3.26 14.75 5.4 18.58q5.47 9.75 12.89 21.37 4.6 7.2-.83 12.99-17.09 18.24-19.83 22.15-.72 1.02-3.5 3.86-1.01 1.02-3.3 4.04l-6.44 8.27q-16.21 20.78-31.19 45.58-5.65 9.37-16.54 30.13c-1.97 3.77-3.14 7.34-5.02 11q-1.78 3.46-3.82 8.22-24.01 55.9-32.61 116.46c-.62 4.36-1.49 6.98 2.54 8.84a2.14 2.12 50 0 0 1.4.13l14.69-3.5c4.73-1.12 7.24-2.98 8.06-7.57q2.71-15 4.22-22.33 8.28-40.35 23.58-77.36c3.67-8.86 7.09-15.82 11.41-25.14q3.36-7.23 14.65-26.57 6.9-11.79 23.64-35.36 1.66-2.34 13.3-17.18 2.95-3.77 9.82-11.78 8.34-9.74 10.09-11.58 12.32-13 26.16-26.29c8.29-7.96 19.93-17.57 26.37-22.67q16.1-12.73 32.1-23.33c7.47-4.94 18.4-11.12 23.67-14.38 5.95-3.68 11.69-6.11 18.12-9.73 7.98-4.49 14.77-7.24 24.92-11.91q5.41-2.48 11.26-4.75 15.46-5.98 17.92-6.87 33.89-12.28 71.94-20.33 4.16-.88 33.26-6.24c4.24-.78 8.91-2.39 10.44-6.27 1.13-2.88 2.67-14.31-2.25-15.77q-2.35-.69-5.49-.43-81.15 6.83-154.16 40.74-59.59 27.68-109.38 70.11-4.95 4.23-10.92 5.23-1.01.17-1.8-.27a.52.45-27.7 0 0-.22-.05m167.03 5.09c-28.79 13.13-57.07 29.65-81.16 49.91q-3.78 3.17-2.76 7.77c1.02 4.65 5.11 6.71 9.67 8.14q8.4 2.64 16.35-2.61 2.96-1.95 16-11a337 337 0 0 1 52.06-29.92c18.17-8.28 37.47-14.79 56.74-19.68q15.38-3.9 18.8-4.86 9.17-2.56 12.69-10.63c1.91-4.38 3.04-8.82.2-12.64q-2.8-3.78-7.68-3.01c-31.1 4.89-62.11 15.41-90.91 28.53m-62.82 121.64q1.33.28 2.34 1.38a129 129 0 0 0 9.44 8.95c6.19 5.31 10.92 10.53 16.59 15.36 5.42 4.62 10.6 10.28 16.62 15.29q2.64 2.19 6.11 5.73 4.67 4.76 11.16 10.22c3.49 2.93 6.51 6.51 10 9.54q7.8 6.79 9.85 9c4.03 4.34 8.3 6.06 12.44 1.2q6.33-7.44 13.73-15 4-4.08 8.48-9.32 2.62-3.06 1.85-5.8-.45-1.58-1.46-2.56c-2.21-2.16-4.68-3.24-7.71-5.17q-52.17-33.15-84.78-54.28l-10.89-7.05c-7.16-4.36-13.16-8.67-20.03-13.01q-5.41-3.41-19.86-12.91-28.75-18.9-36.92-24.36c-1.23-.82-3.76-1.75-4.98-.33q-1.32 1.54-1 3.22a2.44 2.27 25.7 0 0 .29.74q12.58 20.4 24.9 39.71 43.51 68.13 90.32 136.02 2.7 3.91 4.26 5.05c4.95 3.62 11.81 1.5 14.57-3.62 3.11-5.76-.61-10.37-3.84-15.02q-35.54-51.2-63.04-90.62a1.52 1.52 0 0 1 1.56-2.36m-123.33 56.89c-13.46 26.67-24.54 55.52-30.34 84.67q-.91 4.57 2.56 7.35c3.5 2.83 7.72 1.93 11.93.29q7.74-3.01 10.5-11.57 1.03-3.18 5.29-17.55a319 319 0 0 1 20.7-52.77 318 318 0 0 1 30.18-47.98q9.02-11.95 10.97-14.67 5.26-7.3 3.08-15.32c-1.18-4.36-2.96-8.29-7.31-9.43q-4.3-1.13-7.44 2.31c-20.01 21.96-36.66 48.01-50.12 74.67m419.83-38.76q-14.13 7.91-27.59 18.14c-5.65 4.28-9.7 8.38-14.66 12.53q-3.2 2.68-8.52 8.64-4.22 4.73-8.23 8.96c-5.1 5.91-10.79 11.95-15.23 17.37q-14.48 17.69-25.21 35.4-11.27 18.61-19.56 37.91-11.5 26.74-18.25 58.16-.35 1.64-.28 2.38a1.6 1.6 0 0 0 1.6 1.46q24.49.11 62.72.1c1.5 0 3.87.19 3.94 2.11q.06 1.56-1.1 2.72-58.8 58.78-68.4 68.34-5.15 5.12-4.24 11.58c6.59 47.03 22.92 94.79 49.03 134.29q13.26 20.07 30.21 36.5 1.53 1.48 2.89-.49a.57.53 64.6 0 0 .1-.32q-.87-123.89-.03-246.24c.02-3.27 2.68-6.58 6.03-3.94 6.06 4.79 13.62 12.49 20.79 19.09q17.69 16.29 26.05 24.08l28.71 26.8q4.22 3.94 2.96 10.16-77.68 383.37-80.18 396.05-.33 1.66-1.37 2.57a.52.52 0 0 1-.85-.27q-.4-1.7-.43-3.54-.33-23.03-2.2-111.99-.04-1.82-1.74-3.17-19.02-15.04-47.96-37.75c-1.87-1.46-3.76-2.64-5.44-4.6a.5.5 0 0 0-.87.42l52.17 280.67a2.3 2.3-86.2 0 0 1.57 1.8q4.05 1.34 4.86-2.68 25.86-127.97 89.57-442.65.35-1.72 2.66-2.61c2.15-.82 3.82.38 5.87 1.72q42.48 27.72 190.51 123.17c3.82 2.46 10.06 6.09 14.11 6.28a1.3 1.3 0 0 0 1.28-1.8q-.24-.59-1.03-1.76-57.89-85.47-136.01-200.52-.42-.63-.31-1.16c.35-1.64 1.35-2.12 3.14-2.42q418.74-69 476.8-78.59 2.87-.47 3.65-1.93c.78-1.45-.09-2.39-.91-3.49q-.56-.75-2.53-1.1l-534.26-94.63c-5.43-.96-7.93-.9-9.24-6.28q-4.5-18.52-24.93-101.49-.89-3.61-4.66-2.81-8.34 1.79-15 8.83m326.71 122.58q-3.02-9.94-7.01-22.36c-1.65-5.1-6.89-5.75-11.67-6.47q-4.95-.76-7.91 3.14c-2.19 2.88-1.75 7.2-.54 10.25 4.25 10.72 10.2 23.38 24.53 19.47q2.21-.6 2.66-2.66a2.68 2.67-47.6 0 0-.06-1.37m80.17 22.14 16.42-5.18a1.95 1.95 0 0 0 1.27-2.45l-7.19-22.8a21.74 9.76 72.5 0 0-15.84-17.8l-1.53.48a21.74 9.76 72.5 0 0-2.77 23.67l7.19 22.8a1.95 1.95 0 0 0 2.45 1.28m-664.66-25.96q-17.56 3.01-34.89 5.94L260.5 758.99q-7.65 1.3-15.73 2.72c-7.1 1.25-1.8 6.58 1.55 7.18q36.17 6.45 132.04 24.47 39.21 7.37 81.35 13.25 42.74 5.96 78.74 13.82c11.96 2.62 17.94-2.7 27.72-9.44a2.47 2.35-3.1 0 0 .64-.68c2.06-3.38-1.33-6.2-4.57-5.77a.12.06-16.8 0 1-.05-.01l-192.72-34.28a.74.74 0 0 1-.26-1.35q.28-.17 1.03-.24c28.77-2.58 56.7-1.47 84.36-1.45q59.69.06 141.65 1.25 6.77.1 19.98-.24 10.32-.28 19.15-8.12 7.39-6.56 18.39-19.09c2.79-3.17 5.35-5.45 7.91-8.73q1-1.29 6.29-7.05 10.99-12 28.79-35.8 2.6-3.19-1.33-3.96m585.63 449.37c1.21-1 1.25-2.65.37-4.03q-6.83-10.69-24.27-37.91c-2.81-4.39-4.48-10.52-1.25-15.24 3.93-5.72 10.3-11.13 14.64-16.03q11.99-13.54 18.71-21.89 77.27-96.04 93.37-218.76a3.23 3.11 43.9 0 0-.04-1q-1.14-5.88-7.06-3.88-2.73.92-8.35 3.04c-4.51 1.7-7.16 3.72-9.45 7.56-1.47 2.45-2.06 8.61-2.77 11.83q-26.83 120.64-109.58 212.36-2.31 2.57-11.29 11.75c-1.79 1.83-2.93 3.67-4.68 5.12q-2.19 1.81-3.61 3.22-14.92 14.81-31.66 28.41-45.58 37.03-98.96 62.26-61.22 28.93-132.55 40.88c-8.8 1.47-13.62 1.52-15.23 10.42q-.56 3.06-1.59 9.36c-.47 2.88 1.75 4.64 3.88 5.85q.84.48 3.2.17 63.29-8.17 121.23-29.71 69.81-25.95 127.56-71.47 16.46-12.97 25.85-20.89.91-.76 3.69-.6a1.66 1.63-18.9 0 1 1.13.54q.91 1.01 9.02 7.97 2.79 2.4 5.29 3.98c3.27 2.06 6.71 5.13 10.08 6.82 4.21 2.12 7.49 4.42 11.84 6.33q7.78 3.4 8.74 3.79 2.3.93 3.74-.25M404.33 824.11q2.12 11.94 5.02 26.89c1.2 6.14 7.19 7.62 12.63 9.12q5.63 1.56 9.6-2.54c2.94-3.04 3.03-8.11 2.05-11.81-3.44-13.01-8.58-28.51-25.73-25.97q-2.64.39-3.45 2.72a3 3-40.8 0 0-.12 1.59m271.26 11.1a26.34 9.9-177.5 0 0 25.88 11.04 26.34 9.9-177.5 0 0 26.74-8.74 26.34 9.9-177.5 0 0-25.88-11.04 26.34 9.9-177.5 0 0-26.74 8.74m570.82 92.24c14.22-26.71 26.07-55.69 32.56-85.08q1.03-4.61-2.42-7.5c-3.48-2.94-7.79-2.12-12.08-.56q-7.91 2.89-10.89 11.49-1.11 3.21-5.74 17.66a322 322 0 0 1-22.1 52.99 323 323 0 0 1-31.61 47.94q-9.4 11.91-11.43 14.62-5.48 7.28-3.45 15.45c1.09 4.44 2.82 8.46 7.2 9.71q4.33 1.24 7.58-2.18c20.75-21.81 38.17-47.82 52.38-74.54m-590.7 63.67q-.16-1.13.69-1.98l71.96-71.93q4.02-4.02 5.25-6.77 1.81-4.02.99-8.49-6.22-34.18-7.66-41.65c-.66-3.42-5.11-4.92-7.24-1.87q-77.57 111.06-134.23 192.04-1.75 2.51-1.85 2.83c-.84 2.76 1.12 4.4 3.71 3.96a.92.84 21.2 0 0 .26-.1q72.51-46.42 157.81-101.25 6.16-3.96 2.71-10.96-3.47-7.03-5.09-9.93a1.24 1.24 0 0 0-1.78-.42l-84.39 57.03a.74.73 69 0 1-1.14-.51m-101.4-74.07a11.37 11.37 0 0 0-15.83-2.8l-.33.24a11.37 11.37 0 0 0-2.8 15.83l48.06 68.63a11.37 11.37 0 0 0 15.83 2.8l.33-.24a11.37 11.37 0 0 0 2.8-15.83zm-52.51 216.74c1.99 3.46 4.83 1.21 7.05-.19q3.19-2.01 41.5-26.69 3.06-1.97 7.37-.17a2.59 2.54-11.9 0 1 .72.46q31.12 27.79 67.09 50.25 73.41 45.84 158.99 61.75 22.41 4.17 49.06 9.07a3 3 0 0 0 1.12 0c3.6-.67 4.59-3.71 3.99-7.3q-.94-5.67-2.1-12.06-.98-5.42-6.29-6.25c-14.12-2.21-25.11-3.73-38.21-6.5q-24.06-5.07-47.2-12.35-7.37-2.32-26.91-9.46-3.59-1.32-7.73-3.11-7.49-3.25-7.64-3.33-1.59-.83-4.08-1.67c-2.02-.68-4.04-2.06-6.23-2.79-4.2-1.4-9.96-4.54-19.08-9.07-10.05-5.01-17.82-9.85-27.91-15.62q-6.92-3.96-11.27-6.97c-5.85-4.04-18.07-11.81-26.19-17.96q-14.09-10.67-16.53-12.62-2.71-2.15-22.51-19.37c-5.39-4.68-9.31-8.94-15.5-14.82q-3.94-3.74-10.74-11.26-8.66-9.57-14.84-16.71-14.81-17.11-31.24-41.26-17.01-25.01-28.62-48.65-4.06-8.25-6.07-10.74-3.41-4.23-8.57-3.93-5.22.31-11.37 1.9c-7.03 1.82-5.17 6.69-2.58 11.85q19.02 37.87 42.09 72.39 11.06 16.54 22.59 30.87 2.65 3.3 8.96 10.67c3.98 4.65 8.02 8.64 11.88 13 3.69 4.16 5.27 7.22 2.33 12.23q-10.22 17.41-21.18 36.54c-1.09 1.9-5.37 7.75-4.15 9.87m219.35-30.85c28.34 12.88 58.86 23.18 89.46 27.96q4.79.75 7.55-2.97c2.79-3.77 1.67-8.13-.21-12.44q-3.47-7.93-12.5-10.44-3.36-.93-18.5-4.76a331 331 0 0 1-55.83-19.29 333 333 0 0 1-51.26-29.37q-12.83-8.89-15.74-10.81-7.83-5.15-16.09-2.54c-4.48 1.41-8.5 3.44-9.5 8.01q-1 4.53 2.72 7.65c23.72 19.9 51.56 36.12 79.9 49m340.26-.81c27.38-12.45 54.27-28.12 77.19-47.35q3.59-3.01 2.63-7.38c-.97-4.42-4.85-6.39-9.18-7.75q-7.98-2.52-15.54 2.46-2.82 1.86-15.22 10.44c-15.53 10.76-32.24 20.54-49.51 28.39a322 322 0 0 1-53.94 18.65q-14.62 3.69-17.87 4.59-8.72 2.43-12.07 10.09c-1.82 4.17-2.9 8.38-.2 12.02q2.66 3.6 7.29 2.87c29.56-4.63 59.04-14.58 86.42-27.03m225.37 340.45c3.41 1.54 6.2.81 7.59-2.52q5.6-13.41 8.21-19.93c1.69-4.22 2.18-6.68-2.44-9.05q-45.53-23.27-95.65-13.77-25.6 4.84-42.84 22.66-12.75 13.17-14.27 31.09c-1.33 15.45 2.96 31.23 14.42 41.79q5.66 5.22 9.13 7.27c18.78 11.16 40.48 15.71 61.79 19.18 13.36 2.17 23.29 5.37 32.85 13.04 12.46 9.97 10.3 23.09-2.17 31.45-3.87 2.6-10.61 4.42-14.86 4.86q-15.47 1.6-33.99.28c-19.58-1.39-37.61-7.15-53.12-19.34a2 2 0 0 0-.64-.35q-3.14-1.07-5.22.73a2.5 2.5 0 0 0-.67.94q-7.24 17.49-10.27 25.21-1.92 4.87 2.15 7.14 30.06 16.73 64.02 20.45 32.18 3.53 62.48-6.73c26.25-8.9 41.95-26.94 41.49-55.7q-.45-27.86-24.53-41.3-13.57-7.56-27.86-10.54-18.21-3.78-32.17-7.44-19.19-5.03-35.29-15.23c-4.8-3.03-6.76-5.55-6.3-11.17 1.09-13.18 9.74-21.76 22.32-24.7q9.09-2.13 16.68-1.94 30.6.74 59.16 13.62m203.19.22c3.4 1.55 6.2.83 7.6-2.5q5.65-13.4 8.29-19.92c1.71-4.22 2.21-6.68-2.41-9.06q-45.49-23.45-95.7-14.12-25.64 4.76-42.96 22.54-12.8 13.13-14.39 31.07c-1.38 15.46 2.86 31.27 14.29 41.88q5.65 5.24 9.12 7.31c18.76 11.23 40.46 15.86 61.78 19.41 13.36 2.22 23.29 5.45 32.84 13.16 12.43 10.03 10.23 23.15-2.28 31.48-3.89 2.59-10.64 4.38-14.9 4.81q-15.49 1.55-34.02.16c-19.59-1.46-37.62-7.28-53.1-19.54a2.16 2.15 73.6 0 0-.64-.35q-3.14-1.08-5.23.71a2.5 2.5 0 0 0-.68.94q-7.3 17.48-10.36 25.2-1.94 4.87 2.12 7.15 30.04 16.85 64.02 20.69 32.2 3.65 62.56-6.52c26.31-8.81 42.08-26.82 41.72-55.61q-.35-27.89-24.41-41.42-13.56-7.62-27.85-10.65-18.21-3.85-32.17-7.56-19.2-5.1-35.28-15.36c-4.79-3.05-6.74-5.58-6.26-11.21 1.13-13.19 9.82-21.74 22.42-24.64q9.11-2.1 16.71-1.89 30.62.85 59.17 13.84m159.41 111.7q22.24-.04 40.01.1c5.87.05 10.09-.36 12.46 4.38q13.77 27.62 17.59 35.44 2.68 5.48 8.56 5.79 4.17.21 31.82.15c4.52-.01 5.32-2.71 3.47-6.7q-2.45-5.3-3.49-7.49-66.22-139.53-85.69-180.63-3.62-7.62-12.08-8.04-6.46-.32-12.91-.31t-12.91.35q-8.46.45-12.05 8.09-19.33 41.16-85.08 180.91-1.04 2.2-3.46 7.5c-1.84 4-1.04 6.69 3.49 6.69q27.65-.03 31.82-.26 5.87-.32 8.54-5.82 3.79-7.82 17.47-35.49c2.35-4.75 6.57-4.36 12.44-4.42q17.77-.21 40-.24m-1077.41.02q22.22-.04 39.99.1c5.87.04 10.09-.37 12.45 4.37q13.78 27.61 17.59 35.42 2.68 5.48 8.56 5.78 4.17.22 31.81.15c4.52-.01 5.31-2.7 3.47-6.7q-2.45-5.29-3.49-7.48-66.22-139.46-85.69-180.54-3.61-7.62-12.08-8.04-6.45-.32-12.9-.31t-12.9.36q-8.46.45-12.05 8.08-19.32 41.15-85.02 180.86-1.03 2.19-3.45 7.49c-1.84 4-1.03 6.69 3.49 6.69q27.63-.03 31.8-.27 5.88-.32 8.54-5.81 3.79-7.83 17.46-35.48c2.35-4.76 6.57-4.36 12.43-4.43q17.77-.2 39.99-.24m434.42.46q22.27-.09 40.08.02c5.88.03 10.11-.39 12.49 4.36q13.86 27.64 17.7 35.46 2.7 5.49 8.59 5.78 4.18.21 31.88.08c4.53-.02 5.32-2.72 3.46-6.72q-2.46-5.3-3.51-7.49-66.65-139.64-86.25-180.77-3.64-7.63-12.12-8.03-6.47-.31-12.93-.28t-12.93.38q-8.48.47-12.06 8.13-19.28 41.28-84.84 181.43-1.03 2.2-3.45 7.52c-1.83 4.01-1.02 6.71 3.51 6.69q27.7-.08 31.88-.33 5.89-.33 8.55-5.84 3.77-7.85 17.42-35.6c2.34-4.77 6.57-4.38 12.45-4.46q17.81-.24 40.08-.33m-583.4 4.03-.01-31.55q-.14-62.11.35-124.21.03-4.12-3.48-5.64-.24-.11-7.21-.16-14.65-.1-25.16.03a4 4-53.8 0 0-.96.15q-4.17 1.28-4.16 6.86.05 66.48-.01 72.04a2.31 2.3 89.1 0 1-2.21 2.29q-5.05.2-10.39.22-34.63.09-91.52.01-3.2 0-3.25-3.06-.65-39.53-.34-70.45c.04-4.45-.69-7.79-5.64-7.78q-23.19.05-28.11.01c-6.6-.04-7.34 3.26-7.29 8.98q.52 59.99.28 142.29c-.05 17.07.31 32.35.31 47.83a3.4 3.4 0 0 0 1.9 3.03q2.02.97 4.93.89 18.5-.48 27.82-.23c4.13.1 5.87-1.78 5.81-5.82q-.34-22.6-.13-72c.02-4.11.95-7.25 5.5-7.25h84.73q10.59 0 14.86.38 2.04.18 2.94 2.69a1.15 1.11 35.8 0 1 .07.39q-.05 55.16.06 76.53c.02 4.21 3.71 5.02 7.44 5.02l27.88-.03q5.3 0 5.34-5.23.14-14.22-.35-36.23m301.11-8.72q-.14 22.98.01 45.96.03 4.5 4.89 4.5 95.74-.06 144.02-.02 4.73.01 4.77-5.19.14-18.01-.13-23.96c-.17-3.62-3-4.35-6.37-4.35q-86.6-.09-98.69.01-3.27.03-4.66-1.07-2.17-1.69-2.17-4.21-.13-84.16.04-157.91.01-3.21-.83-4.44-1.23-1.8-4.01-1.83-8.65-.1-15.95.12-9.05-.16-16.69.21-4.22.21-4.22 5.09.01 73.55-.01 147.09m-638.83-52.5v57.25q-.24 19.73-.11 39.46c.03 4.94 2.16 6.3 6.83 6.43q9.25.24 27.28.07c7.08-.07 6.39-4.64 6.35-10.66q-.48-73.16-.03-149.71c.02-4.75 1.02-7.81 6.14-7.74q26.52.35 55.74.06c5.04-.05 8.82-.63 8.96-6.22q.14-5.87.07-23.25a2.92 2.86-55.1 0 0-.16-.95q-1.47-4.17-5.36-4.18-72.56-.25-165.45-.27c-3.99 0-10.37-.45-10.78 4.93q-.78 10.11-.37 22.67.22 6.82 6.39 6.88 41.29.4 55.23.44 2.99.01 6.07.21a1.9 1.86 62.5 0 1 .89.29q2.4 1.49 2.48 5.5c.28 14.79-.4 38.83-.17 58.79m1464.5 198.55a41.7 40.37-163.5 0 0 28.52 50.55 41.7 40.37-163.5 0 0 51.45-26.87 41.7 40.37-163.5 0 0-28.51-50.55 41.7 40.37-163.5 0 0-51.45 26.87m-1142.09 16.18q11.4 15.15 24.97 32.73c3.25 4.22 8.9 4.44 11.94.47q1.41-1.83 1.4-8.07-.01-37.74-.04-60.35c-.01-4.5-.99-7.77-5.79-8.13-7.92-.6-8.58 4.47-8.4 11.4q.05 2.1.01 36.82a1.73 1.7-87.5 0 1-1.84 1.72q-1.13-.09-2.16-1.35-5.38-6.59-10.41-13.27-11.42-15.13-24.99-32.72c-3.26-4.22-8.91-4.43-11.94-.46q-1.41 1.82-1.4 8.07.01 37.73.04 60.34c.01 4.51.99 7.77 5.78 8.14 7.93.6 8.59-4.47 8.4-11.41q-.04-2.09 0-36.82a1.73 1.7-87.5 0 1 1.84-1.71q1.13.09 2.15 1.34 5.39 6.59 10.44 13.26m562.9 32.54c1.22-.69 2.2-2.27 1.39-3.73-1.19-2.14-3.64-4.37-4.67-7.14-2.37-6.39-.8-9.71 1.94-16.24a2.47 2.34-36.5 0 0 .19-1.07c-.33-5.68-6.14-5.5-9.43-2.61q-1.36 1.2-3.67 3.59a.99.96-67.5 0 1-.7.3l-2.61-.02a1.23 1.2-19.2 0 1-.94-.44q-1.33-1.61-4.24-3.11a.71.68 79.8 0 1-.18-.13l-6.68-7.03a1.19 1.16-73.6 0 1-.3-.57q-.38-1.94.4-3.54a1.98 1.92-2.6 0 1 .78-.83q4.81-2.8 5.79-3.69c6.18-5.63 8.55-15.68 3.78-23.11q-3.05-4.74-9.57-6.38c-9.05-2.29-19.51-.78-25.67 6.28-6.14 7.05-5.36 14.91-.47 22.47 2.24 3.46 3.48 6.28.51 9.2q-5.93 5.85-11.91 12.67-2.77 3.16-3.08 6.11-.42 4.05 1.32 6.76 3.79 5.89 9.4 10.42 6.2 5.01 12.56 6.19 9.21 1.72 18.55-2.61c2.9-1.34 8.01-5.3 11.99-4.42q8.32 1.84 14.46 2.86a1.6 1.59-54.3 0 0 1.06-.18m346.17-11.73q-8.71-4.42-13.04-13.25c-5.11-10.41-4.09-22.59 4.57-30.65 6.78-6.31 17.05-9.07 25.96-6.18q8.36 2.71 18.05 6.24a2.03 1.91-37.3 0 0 .96.1q4.13-.56 3.66-4.21-1.2-9.49-9.96-12.83c-13.02-4.95-29.14-6.66-41.63 1.08q-4.89 3.03-7.03 4.91c-10.46 9.2-14.04 24.18-11.48 37.38q2.48 12.76 11.45 21.16 4.81 4.5 12.79 7.63c14.38 5.65 32.23 6.71 43.1-6.28q4.51-5.38 4.98-11.82.48-6.48-1.52-13.02c-1.18-3.85-4.83-5.71-8.56-4.23q-4.62 1.84-4.92 7.99c-.41 8.31.68 14.18-7.06 18.08q-2.42 1.22-6.75 1.11-7.56-.17-13.57-3.21m-272.37-20.82q11.35 15.1 24.85 32.63c3.25 4.21 8.88 4.43 11.9.47q1.4-1.81 1.4-8.03v-60.14c-.01-4.49-.98-7.74-5.76-8.1-7.9-.61-8.56 4.44-8.38 11.35q.05 2.09-.02 36.69a1.72 1.69-87.4 0 1-1.83 1.71q-1.13-.09-2.15-1.34-5.36-6.57-10.36-13.23-11.38-15.09-24.89-32.62c-3.24-4.2-8.87-4.42-11.89-.47q-1.41 1.82-1.41 8.04-.01 37.6.01 60.13c0 4.49.98 7.74 5.76 8.11 7.9.6 8.55-4.45 8.38-11.36q-.05-2.09.01-36.69a1.72 1.69-87.4 0 1 1.83-1.7q1.13.09 2.15 1.34 5.36 6.57 10.4 13.21m88.09 16.83 12.78-.1q3.91-.03 6.06 2.98 1.71 2.4 8.94 13.56 2.56 3.95 7.34 2.4c5.28-1.71 4.03-5.73 2.14-10.09q-14.57-33.65-26.03-59.09c-2.78-6.18-4.25-10.43-11.66-10.38s-8.81 4.32-11.51 10.54q-11.1 25.6-25.2 59.45c-1.83 4.39-3.02 8.43 2.28 10.06q4.81 1.48 7.31-2.5 7.07-11.26 8.75-13.69 2.11-3.04 6.02-3.06zm-809.59 18.71c2.47-.23 4.56-2.29 2.91-4.77q-7.31-10.97-11.51-17.31-2.37-3.6.46-6.37c2.83-2.77 6.57-4.58 8.96-8.33q5.22-8.16 4.5-16.31c-.99-11.27-8.84-20.07-19.5-23.76q-4.3-1.5-15.06-1.8-17.35-.49-18.63-.51-7.45-.14-9.78 5.12-.72 1.61-.67 11.59.02 5.85-.03 50.17c-.01 6.42.85 10.55 7.32 11.82 4.01.78 7.76-1.34 6.68-5.86q-.14-.57-1.9-9.77a3.61 3.59 58.7 0 1 .7-2.88q4.45-5.67 11.63-5.64 7.14.04 11.09 4.83 7.04 8.52 12.2 15.22 3.98 5.19 10.63 4.56m35.86-72.87a6.53 6.53 0 0 0-6.54-6.52h-1.12a6.53 6.53 0 0 0-6.52 6.54l.12 66.58a6.53 6.53 0 0 0 6.54 6.52h1.12a6.53 6.53 0 0 0 6.52-6.54zm848.07 50.17q-2.12-1.37-2.39-2.05-13.77-35.51-18.02-46.73c-2.33-6.18-6.64-7.91-12.53-7.76-2.17.05-5.32 2.09-5.25 4.69q.03 1.05.72 2.7c3.54 8.51 9.04 18.45 12.4 26.48 2.61 6.26 6.43 12.75 9.27 19.44q1.97 4.65 9.68 20.13 1.68 3.38 2.95 4.37a8.7 8.7 0 0 0 11.45-.59q1.58-1.47 3.47-6.21c6.17-15.52 16.49-39.73 24.94-60.67q1.3-3.21 1.1-4.67c-.61-4.52-7.27-6.07-10.43-4.01q-1.72 1.12-3.95 6.73-4.8 12.09-16.13 39.06c-1.06 2.52-1.72 5.52-3.46 7.9q-.54.73-2.88 1.34a1.2 1.18 53.7 0 1-.94-.15m-739.91-16.14q.15 16.02.78 32.22.13 3.54 1.11 4.96 1.46 2.11 4.48 2.15 13.46.16 43.4-.01c4.05-.02 6.85-1.18 7.99-4.95 1.27-4.19.68-8.03-4.66-7.91q-.12.01-32.14-.05a2.87 2.83 51.8 0 1-.71-.09q-4.76-1.16-6.61-5.34c-1.84-4.18-.99-10.79 2.58-13.86q3.56-3.06 9.19-2.5 11.4 1.15 18.4 1.6c5.16.33 7.15-1.63 7.1-6.7-.04-5.08-2.08-7-7.22-6.57q-7 .58-18.37 1.95-5.62.67-9.24-2.32c-3.63-3-4.6-9.6-2.84-13.81q1.77-4.22 6.51-5.47a2.87 2.83-52.9 0 1 .7-.1q32.02-.67 32.14-.66c5.34.02 5.86-3.83 4.51-8-1.22-3.75-4.04-4.85-8.09-4.8q-29.93.4-43.39.82-3.02.1-4.44 2.23-.95 1.44-1.02 4.99-.31 16.2-.16 32.22m102.47-33.22.34 65.19a6.77 6.77 0 0 0 6.81 6.74l28.78-.15a38.83 37.48-.3 0 0 38.63-37.68l-.02-3.78a38.83 37.48-.3 0 0-39.03-37.28l-28.78.15a6.77 6.77 0 0 0-6.73 6.81m258.02 53.54 12.73-.01q3.89-.01 6.01 3.01 1.69 2.4 8.81 13.56 2.52 3.95 7.29 2.44c5.27-1.67 4.06-5.68 2.2-10.03q-14.28-33.61-25.51-59.02c-2.73-6.17-4.17-10.41-11.54-10.41s-8.81 4.24-11.54 10.41q-11.22 25.42-25.49 59.03c-1.85 4.36-3.06 8.37 2.2 10.03q4.78 1.51 7.3-2.44 7.11-11.16 8.8-13.57 2.12-3.01 6.01-3.01zm443.34-54.78a5.75 5.75 0 0 0-5.72-5.78l-2.22-.02a5.75 5.75 0 0 0-5.78 5.72l-.36 67.68a5.75 5.75 0 0 0 5.72 5.78l2.22.02a5.75 5.75 0 0 0 5.78-5.72zm264.33.4a6 6 0 0 0-5.88-6.11l-3.46-.07a6 6 0 0 0-6.1 5.88l-1.28 66.35a6 6 0 0 0 5.88 6.1l3.46.07a6 6 0 0 0 6.1-5.88zm138.13 37.67q11.37 15.09 24.9 32.6c3.25 4.2 8.88 4.41 11.9.45q1.4-1.82 1.39-8.04-.05-37.6-.1-60.13c-.01-4.49-.99-7.74-5.77-8.1-7.9-.59-8.55 4.46-8.36 11.37q.05 2.09.04 36.69a1.72 1.69-87.5 0 1-1.83 1.71q-1.13-.09-2.15-1.34-5.37-6.56-10.39-13.22-11.4-15.06-24.93-32.57c-3.25-4.2-8.88-4.41-11.9-.45q-1.4 1.82-1.39 8.04.05 37.6.1 60.13c.01 4.49.99 7.74 5.77 8.1 7.9.59 8.55-4.46 8.36-11.37q-.05-2.09-.04-36.69a1.72 1.69-87.5 0 1 1.83-1.71q1.13.09 2.15 1.34 5.37 6.56 10.42 13.19m-1524.86-14.93a1.42 1.34 83.2 0 1 1.68 1.41l-.07 36.21c-.01 3.24-.35 9.27 2.48 11.09 3.25 2.08 7.77 2.28 9.83-1.28q.9-1.56.87-5.82-.22-35.52-.07-62.49c.04-7.66-9.6-9.98-13.42-3.4q-11.09 19.07-22.62 39.14-1.15 2.01-2.5 3.79a2.36 2.36 0 0 1-2.96.67q-1.24-.64-2.18-2.08-6.32-9.72-26.59-41.4c-1.59-2.49-4.23-4.98-7.63-4.38q-3.21.56-4.93 3.33-.93 1.5-.95 5.87-.21 48.61-.01 60.94.11 6.38 5.66 8.55c4.79 1.87 7.8-.74 7.86-5.79q.02-1.14.03-39.01a1.1 1.04 61.8 0 1 .15-.55q1-1.62 2.42-1.19a1.59 1.55-8.4 0 1 .84.61c7.11 10.33 12.29 18.95 20.49 31.6 1.85 2.85 4.6 5.06 7.81 3.13 1.5-.91 2.67-3.48 3.65-5.13q11.59-19.48 19.05-32.71.55-.96 1.11-1.11M214 1729.4l12.68.01q3.88 0 5.98 3.01 1.68 2.39 8.76 13.52 2.5 3.94 7.26 2.44c5.25-1.65 4.04-5.65 2.2-9.99q-14.17-33.49-25.32-58.82c-2.71-6.15-4.14-10.38-11.48-10.39s-8.78 4.22-11.51 10.36q-11.22 25.3-25.48 58.75c-1.85 4.34-3.06 8.33 2.18 10q4.75 1.51 7.27-2.42 7.11-11.11 8.79-13.5 2.11-3 5.99-2.99zm473.89-.15 12.67.05q3.87.02 5.97 3.03 1.66 2.4 8.7 13.54 2.49 3.95 7.25 2.47c5.25-1.63 4.06-5.63 2.24-9.98q-14.05-33.52-25.1-58.87c-2.69-6.16-4.1-10.39-11.43-10.42-7.35-.04-8.8 4.17-11.54 10.3q-11.31 25.25-25.68 58.63c-1.86 4.33-3.09 8.32 2.14 10q4.75 1.53 7.27-2.39 7.15-11.08 8.84-13.46 2.12-2.99 6-2.97zm718.18.69 12.75.05q3.91.01 6.02 3.04 1.68 2.42 8.77 13.63 2.51 3.97 7.29 2.48c5.29-1.65 4.09-5.68 2.25-10.05q-14.16-33.73-25.31-59.25c-2.71-6.19-4.13-10.45-11.51-10.48s-8.85 4.21-11.61 10.39q-11.36 25.42-25.8 59.03c-1.88 4.36-3.11 8.37 2.16 10.07q4.77 1.53 7.32-2.42 7.18-11.16 8.88-13.56 2.14-3 6.04-2.99zm-649.23 17.54c3.86-.03 6.22-1.91 6.35-5.93.56-16.96 0-37.07-.69-51.44-.22-4.29.46-7.36 5.09-7.63q14.95-.86 16.83-1.08c7.27-.81 7.45-10.86-.32-11.32-8.84-.53-18.09-.56-27.84-.49s-19 .24-27.82.9c-7.77.58-7.44 10.63-.16 11.33q1.89.19 16.85.83c4.63.2 5.35 3.26 5.2 7.55-.48 14.38-.74 34.5.07 51.45.19 4.01 2.58 5.86 6.44 5.83m719.56.44c3.89.01 6.28-1.87 6.45-5.92.7-17.08.3-37.35-.28-51.83-.18-4.32.53-7.41 5.19-7.64q15.07-.75 16.97-.95c7.33-.76 7.59-10.88-.23-11.41a414 414 0 0 0-28.04-.72c-9.83-.01-19.15.08-28.05.68-7.82.52-7.57 10.64-.25 11.41q1.9.2 16.97.97c4.66.24 5.37 3.33 5.18 7.65-.6 14.48-1.03 34.75-.35 51.83.16 4.05 2.55 5.93 6.44 5.93"/><path d="m982.16 686.8 441.21 75.19a1.42 1.41-.3 0 1 1.15 1.13l.06.34a.97.96-5.1 0 1-.96 1.14c-18.7-.2-37.33.23-52.81.25q-169.38.2-300.56.17c-8.52 0-18.79.33-27 .32q-67.44-.09-144.26-.26a1.84 1.82-21.2 0 1-1.34-.58q-2.69-2.92-1.29-7.15c4.22-2.06 8.71-3.78 12.49-6.32q6.55-4.39 13.54-10.38c9.24-7.93 25.63-21.5 37.64-33.16 7.61-7.37 14.82-13.75 22.13-20.69m148.58 300.46a.62.62 0 0 1-.96.19q-1.4-1.25-3.09-2.89-7.81-7.52-15.8-14.71l-4.99-4.49q-4.78-4.29-11.63-10.86-6.12-5.88-10.15-9.35c-5.01-4.32-8.6-8.5-13.4-12.55q-4.65-3.92-9.06-8.39c-4.8-4.87-9.61-8.53-14.5-13.38q-6.25-6.19-9.34-8.72c-4.35-3.56-8.38-8.09-12.82-11.95-7.98-6.93-14.61-13.81-23.81-21.85q-2.46-2.15-2.34-5.43c.13-3.46 3.22-4.97 6.83-5.6q21.74-3.79 25.55-3.99 5.18-.28 10.21 3.56c1.88 1.43 4.33 5.53 5.41 7.31q17.63 28.94 31.08 48.19 18.8 26.93 33.07 45.16 6.29 8.03 21.15 26.62a.97.96-41.1 0 1-.09 1.3q-.78.73-1.32 1.83m480.5 532.38 36.04-77.16a2.23 2.23 0 0 1 4.05.02l35.23 77.54a2.23 2.23 0 0 1-2.04 3.15l-71.27-.37a2.23 2.23 0 0 1-2.01-3.18m-642.67-.82 36.56-75.71a2.25 2.25 0 0 1 4.08.07l34.16 76.81a2.25 2.25 0 0 1-2.09 3.17l-70.72-1.11a2.25 2.25 0 0 1-1.99-3.23m-433.73.7 34.98-76a2.13 2.13 0 0 1 3.86 0l34.98 76a2.13 2.13 0 0 1-1.94 3.02h-69.94a2.13 2.13 0 0 1-1.94-3.02"/><ellipse rx="10.4" ry="7.43" transform="rotate(-18.2 5736.76 -2065.06)"/><path d="M277.11 1688.83a6.7 6.7 0 0 1 6.74-6.64l15.54.11a15.03 14.74.4 0 1 14.92 14.84v.76a15.03 14.74.4 0 1-15.14 14.63l-15.54-.1a6.7 6.7 0 0 1-6.64-6.74zm307-.95a5.4 5.4 0 0 1 5.36-5.45l10.68-.09a29.16 25.88-.5 0 1 29.38 25.62l.02 1.96a29.16 25.88-.5 0 1-28.94 26.14l-10.67.09a5.4 5.4 0 0 1-5.45-5.35z"/><circle cx="1589.16" cy="1708.93" r="26.84"/><path d="M201.21 1714.11q4.65-11.98 8.41-22.43c1.1-3.03 4.44-6.32 6.6-1.8q.27.55 8.78 20.56c1.65 3.91 1.16 6.54-3.28 6.77q-5.6.28-18.64.63c-2.27.07-2.55-1.96-1.87-3.73m614.72 4.63c-2.33-.01-2.55-2.1-1.79-3.9q5.18-12.14 9.39-22.75c1.23-3.08 4.77-6.34 6.84-1.63q.26.58 8.32 21.41c1.57 4.07.98 6.76-3.59 6.84q-5.76.1-19.17.03m303.79-3.88 8.95-24.78a2.92 2.92 0 0 1 5.4-.25l11.16 23.87a2.92 2.92 0 0 1-2.51 4.16l-20.12.91a2.92 2.92 0 0 1-2.88-3.91m-443.76-2.56 7.24-20.43a4.6 4.6 0 0 1 8.61-.17l8.02 20.14a4.6 4.6 0 0 1-4.18 6.3l-15.27.29a4.6 4.6 0 0 1-4.42-6.13m719.22 3.26q4.27-11.35 7.71-21.27c1.01-2.88 4.13-6.01 6.22-1.77q.26.52 8.5 19.33c1.61 3.67 1.17 6.17-3.02 6.42q-5.29.33-17.6.8c-2.14.09-2.43-1.82-1.81-3.51m-469.64 21.17q-4.36-.97-7.59-4.98c-4.05-5.01-2.65-13.95 4.09-16.2q5.21-1.73 9.33.77a3.61 3.26-2.9 0 1 .76.62q2.76 2.97 9.4 8.36c3.63 2.94 6.5 7.14 1.06 10.57a2.92 2.78 22.4 0 1-.98.38q-9.76 1.89-16.07.48"/></g><g fill="#0f172a"><path d="M899.26 61.04q-5.04 4.09-5.46 9.25-1.85 22.48-2.4 54.17-.13 7.56.05 20.58.14 10.31.09 20.58-2.19.64-5.61 2.06-48.28 19.92-53.82 22.16-1.14.46-1.31.46a1.83 1.83 0 0 1-1.71-2.53l60.14-145.38a2.4 2.4 5 0 1 1.69-1.41q3.3-.71 4.13 2.72zm45.26 408.26c-3.11-.65-5.08.41-7.8-2.54q-3.05-3.32-3.99-8.75-13.24-75.98-24.71-129.72-9.41-44.09-11.87-55.14a.46.46 0 0 0-.9.04q-1.26 8.98-1.71 18.5-3.32 69.66-1.44 147.83.65 26.9 1.42 53.75-8.8 8.94-15.15 12.6c-6.78 3.91-14.02 7.96-19.72 12.78-12.47 10.53-25.1 21.17-37.04 30.46q-3.15 2.45-5.57 4.03a1.97 1.96 30.4 0 1-1.23.32q-4.04-.29-3.11-4.16 9.81-40.99 15.39-70.19 8.96-46.86 17.84-92.64 2-10.27 4.75-22.75c13.69-62.17 24.8-113.01 34.34-172.01.62-3.81 1.99-9.33 3.12-13.82.56-2.21 2.25-4.61 4.8-4.5q3.36.14 3.98 3.69c5.73 33.06 13.24 65.49 21.74 101.25q1.79 7.53 5.14 24.11.51 2.54 11.29 57.52 6.18 31.49 21.13 95.69c1.4 5.99 2.28 10.87-4.83 12.25q-3.07.6-5.87 1.4m-287.81 79.28a1.52 1.52 0 0 0-1.56 2.36q27.5 39.42 63.04 90.62c3.23 4.65 6.95 9.26 3.84 15.02-2.76 5.12-9.62 7.24-14.57 3.62q-1.56-1.14-4.26-5.05-46.81-67.89-90.32-136.02-12.32-19.31-24.9-39.71a2.44 2.27 25.7 0 1-.29-.74q-.32-1.68 1-3.22c1.22-1.42 3.75-.49 4.98.33q8.17 5.46 36.92 24.36 14.45 9.5 19.86 12.91c6.87 4.34 12.87 8.65 20.03 13.01l10.89 7.05q32.61 21.13 84.78 54.28c3.03 1.93 5.5 3.01 7.71 5.17q1.01.98 1.46 2.56.77 2.74-1.85 5.8-4.48 5.24-8.48 9.32-7.4 7.56-13.73 15c-4.14 4.86-8.41 3.14-12.44-1.2q-2.05-2.21-9.85-9c-3.49-3.03-6.51-6.61-10-9.54q-6.49-5.46-11.16-10.22-3.47-3.54-6.11-5.73c-6.02-5.01-11.2-10.67-16.62-15.29-5.67-4.83-10.4-10.05-16.59-15.36a129 129 0 0 1-9.44-8.95q-1.01-1.1-2.34-1.38m647.79-29.76c-16.14 4.16-30.8 10.32-47.27 15.87q-25.3 8.52-49.97 8.97-20.45.37-37.78-6.93-2.95-1.24-9.6-5.1-10.78-6.27-19.21-19.31c3.94 4.29 8.25 8.07 13.68 10.2q7.97 3.14 15.64 6.67c14.07 6.48 28.79 9.56 44.3 8.86q19.25-.86 37.78-6.35 4.5-1.34 16.41-5.36c11.89-4.02 23.74-6.15 36.02-7.52m-410.29 96.16q-.81 18.78-1.52 36.78-2 50.43 1.19 100.81.12 2.01 2.48 4.78-1.4 4.23 1.29 7.15a1.84 1.82-21.2 0 0 1.34.58q76.82.17 144.26.26c8.21.01 18.48-.32 27-.32q131.18.03 300.56-.17c15.48-.02 34.11-.45 52.81-.25a.97.96-5.1 0 0 .96-1.14l-.06-.34a1.42 1.41-.3 0 0-1.15-1.13L982.16 686.8l-28.95-120.09q6.66-7.04 15-8.83 3.77-.8 4.66 2.81 20.43 82.97 24.93 101.49c1.31 5.38 3.81 5.32 9.24 6.28l534.26 94.63q1.97.35 2.53 1.1c.82 1.1 1.69 2.04.91 3.49q-.78 1.46-3.65 1.93-58.06 9.59-476.8 78.59c-1.79.3-2.79.78-3.14 2.42q-.11.53.31 1.16 78.12 115.05 136.01 200.52.79 1.17 1.03 1.76a1.3 1.3 0 0 1-1.28 1.8c-4.05-.19-10.29-3.82-14.11-6.28q-148.03-95.45-190.51-123.17c-2.05-1.34-3.72-2.54-5.87-1.72q-2.31.89-2.66 2.61-63.71 314.68-89.57 442.65-.81 4.02-4.86 2.68a2.3 2.3-86.2 0 1-1.57-1.8l-52.17-280.67a.5.5 0 0 1 .87-.42c1.68 1.96 3.57 3.14 5.44 4.6q28.94 22.71 47.96 37.75 1.7 1.35 1.74 3.17 1.87 88.96 2.2 111.99.03 1.84.43 3.54a.52.52 0 0 0 .85.27q1.04-.91 1.37-2.57 2.5-12.68 80.18-396.05 1.26-6.22-2.96-10.16l-28.71-26.8q-8.36-7.79-26.05-24.08c-7.17-6.6-14.73-14.3-20.79-19.09-3.35-2.64-6.01.67-6.03 3.94q-.84 122.35.03 246.24a.57.53 64.6 0 1-.1.32q-1.36 1.97-2.89.49-16.95-16.43-30.21-36.5c-26.11-39.5-42.44-87.26-49.03-134.29q-.91-6.46 4.24-11.58 9.6-9.56 68.4-68.34 1.16-1.16 1.1-2.72c-.07-1.92-2.44-2.11-3.94-2.11q-38.23.01-62.72-.1a1.6 1.6 0 0 1-1.6-1.46q-.07-.74.28-2.38 6.75-31.42 18.25-58.16 8.29-19.3 19.56-37.91 10.73-17.71 25.21-35.4c4.44-5.42 10.13-11.46 15.23-17.37m236.53 372.28q.54-1.1 1.32-1.83a.97.96-41.1 0 0 .09-1.3q-14.86-18.59-21.15-26.62-14.27-18.23-33.07-45.16-13.45-19.25-31.08-48.19c-1.08-1.78-3.53-5.88-5.41-7.31q-5.03-3.84-10.21-3.56-3.81.2-25.55 3.99c-3.61.63-6.7 2.14-6.83 5.6q-.12 3.28 2.34 5.43c9.2 8.04 15.83 14.92 23.81 21.85 4.44 3.86 8.47 8.39 12.82 11.95q3.09 2.53 9.34 8.72c4.89 4.85 9.7 8.51 14.5 13.38q4.41 4.47 9.06 8.39c4.8 4.05 8.39 8.23 13.4 12.55q4.03 3.47 10.15 9.35 6.85 6.57 11.63 10.86l4.99 4.49q7.99 7.19 15.8 14.71 1.69 1.64 3.09 2.89a.62.62 0 0 0 .96-.19M695.43 685.47q-1.01 2.56 1.33 3.96-17.8 23.8-28.79 35.8-5.29 5.76-6.29 7.05c-2.56 3.28-5.12 5.56-7.91 8.73q-11 12.53-18.39 19.09-8.83 7.84-19.15 8.12-13.21.34-19.98.24-81.96-1.19-141.65-1.25c-27.66-.02-55.59-1.13-84.36 1.45q-.75.07-1.03.24a.74.74 0 0 0 .26 1.35l192.72 34.28a.12.06-16.8 0 0 .05.01c3.24-.43 6.63 2.39 4.57 5.77a2.47 2.35-3.1 0 1-.64.68c-9.78 6.74-15.76 12.06-27.72 9.44q-36-7.86-78.74-13.82-42.14-5.88-81.35-13.25-95.87-18.02-132.04-24.47c-3.35-.6-8.65-5.93-1.55-7.18q8.08-1.42 15.73-2.72l400.04-67.58q17.33-2.93 34.89-5.94"/><ellipse rx="26.34" ry="9.9" transform="rotate(182.5 360.07 410.52)"/><path d="M1286.78 1442.58q-28.56-12.88-59.16-13.62-7.59-.19-16.68 1.94c-12.58 2.94-21.23 11.52-22.32 24.7-.46 5.62 1.5 8.14 6.3 11.17q16.1 10.2 35.29 15.23 13.96 3.66 32.17 7.44 14.29 2.98 27.86 10.54 24.08 13.44 24.53 41.3c.46 28.76-15.24 46.8-41.49 55.7q-30.3 10.26-62.48 6.73-33.96-3.72-64.02-20.45-4.07-2.27-2.15-7.14 3.03-7.72 10.27-25.21a2.5 2.5 0 0 1 .67-.94q2.08-1.8 5.22-.73a2 2 0 0 1 .64.35c15.51 12.19 33.54 17.95 53.12 19.34q18.52 1.32 33.99-.28c4.25-.44 10.99-2.26 14.86-4.86 12.47-8.36 14.63-21.48 2.17-31.45-9.56-7.67-19.49-10.87-32.85-13.04-21.31-3.47-43.01-8.02-61.79-19.18q-3.47-2.05-9.13-7.27c-11.46-10.56-15.75-26.34-14.42-41.79q1.52-17.92 14.27-31.09 17.24-17.82 42.84-22.66 50.12-9.5 95.65 13.77c4.62 2.37 4.13 4.83 2.44 9.05q-2.61 6.52-8.21 19.93c-1.39 3.33-4.18 4.06-7.59 2.52m210.79-2.28c-1.4 3.33-4.2 4.05-7.6 2.5q-28.55-12.99-59.17-13.84-7.6-.21-16.71 1.89c-12.6 2.9-21.29 11.45-22.42 24.64-.48 5.63 1.47 8.16 6.26 11.21q16.08 10.26 35.28 15.36 13.96 3.71 32.17 7.56 14.29 3.03 27.85 10.65 24.06 13.53 24.41 41.42c.36 28.79-15.41 46.8-41.72 55.61q-30.36 10.17-62.56 6.52-33.98-3.84-64.02-20.69-4.06-2.28-2.12-7.15 3.06-7.72 10.36-25.2a2.5 2.5 0 0 1 .68-.94q2.09-1.79 5.23-.71a2.16 2.15 73.6 0 1 .64.35c15.48 12.26 33.51 18.08 53.1 19.54q18.53 1.39 34.02-.16c4.26-.43 11.01-2.22 14.9-4.81 12.51-8.33 14.71-21.45 2.28-31.48-9.55-7.71-19.48-10.94-32.84-13.16-21.32-3.55-43.02-8.18-61.78-19.41q-3.47-2.07-9.12-7.31c-11.43-10.61-15.67-26.42-14.29-41.88q1.59-17.94 14.39-31.07 17.32-17.78 42.96-22.54 50.21-9.33 95.7 14.12c4.62 2.38 4.12 4.84 2.41 9.06q-2.64 6.52-8.29 19.92m151.81 114.2q-22.23.03-40 .24c-5.87.06-10.09-.33-12.44 4.42q-13.68 27.67-17.47 35.49-2.67 5.5-8.54 5.82-4.17.23-31.82.26c-4.53 0-5.33-2.69-3.49-6.69q2.42-5.3 3.46-7.5 65.75-139.75 85.08-180.91 3.59-7.64 12.05-8.09 6.46-.34 12.91-.35t12.91.31q8.46.42 12.08 8.04 19.47 41.1 85.69 180.63 1.04 2.19 3.49 7.49c1.85 3.99 1.05 6.69-3.47 6.7q-27.65.06-31.82-.15-5.88-.31-8.56-5.79-3.82-7.82-17.59-35.44c-2.37-4.74-6.59-4.33-12.46-4.38q-17.77-.14-40.01-.1m-38.14-34.86a2.23 2.23 0 0 0 2.01 3.18l71.27.37a2.23 2.23 0 0 0 2.04-3.15l-35.23-77.54a2.23 2.23 0 0 0-4.05-.02zm-1039.27 34.88q-22.22.04-39.99.24c-5.86.07-10.08-.33-12.43 4.43q-13.67 27.65-17.46 35.48-2.66 5.49-8.54 5.81-4.17.24-31.8.27c-4.52 0-5.33-2.69-3.49-6.69q2.42-5.3 3.45-7.49 65.7-139.71 85.02-180.86 3.59-7.63 12.05-8.08 6.45-.34 12.9-.36t12.9.31q8.47.42 12.08 8.04 19.47 41.08 85.69 180.54 1.04 2.19 3.49 7.48c1.84 4 1.05 6.69-3.47 6.7q-27.64.07-31.81-.15-5.88-.3-8.56-5.78-3.81-7.81-17.59-35.42c-2.36-4.74-6.58-4.33-12.45-4.37q-17.77-.14-39.99-.1m-37.13-35a2.13 2.13 0 0 0 1.94 3.02h69.94a2.13 2.13 0 0 0 1.94-3.02l-34.98-76a2.13 2.13 0 0 0-3.86 0zm470.94-122.13q6.46-.03 12.93.28 8.48.4 12.12 8.03 19.6 41.13 86.25 180.77 1.05 2.19 3.51 7.49c1.86 4 1.07 6.7-3.46 6.72q-27.7.13-31.88-.08-5.89-.29-8.59-5.78-3.84-7.82-17.7-35.46c-2.38-4.75-6.61-4.33-12.49-4.36q-17.81-.11-40.08-.02t-40.08.33c-5.88.08-10.11-.31-12.45 4.46q-13.65 27.75-17.42 35.6-2.66 5.51-8.55 5.84-4.18.25-31.88.33c-4.53.02-5.34-2.68-3.51-6.69q2.42-5.32 3.45-7.52 65.56-140.15 84.84-181.43 3.58-7.66 12.06-8.13 6.46-.36 12.93-.38m-37.21 121.43a2.25 2.25 0 0 0 1.99 3.23l70.72 1.11a2.25 2.25 0 0 0 2.09-3.17l-34.16-76.81a2.25 2.25 0 0 0-4.08-.07zm-545.59 8.64-.31-6.85a.21.21 0 0 0-.37-.12q-1.19 1.41-1.27 3.09-.76 15.61.07 32.02.13 2.54 1.89 3.41.49 22.01.35 36.23-.04 5.23-5.34 5.23l-27.88.03c-3.73 0-7.42-.81-7.44-5.02q-.11-21.37-.06-76.53a1.15 1.11 35.8 0 0-.07-.39q-.9-2.51-2.94-2.69-4.27-.38-14.86-.38h-84.73c-4.55 0-5.48 3.14-5.5 7.25q-.21 49.4.13 72c.06 4.04-1.68 5.92-5.81 5.82q-9.32-.25-27.82.23-2.91.08-4.93-.89a3.4 3.4 0 0 1-1.9-3.03c0-15.48-.36-30.76-.31-47.83q.24-82.3-.28-142.29c-.05-5.72.69-9.02 7.29-8.98q4.92.04 28.11-.01c4.95-.01 5.68 3.33 5.64 7.78q-.31 30.92.34 70.45.05 3.06 3.25 3.06 56.89.08 91.52-.01 5.34-.02 10.39-.22a2.31 2.3 89.1 0 0 2.21-2.29q.06-5.56.01-72.04-.01-5.58 4.16-6.86a4 4-53.8 0 1 .96-.15q10.51-.13 25.16-.03 6.97.05 7.21.16 3.51 1.52 3.48 5.64-.49 62.1-.35 124.21m-186.08-79.4q-2.29 22.09-2.32 34.46-.05 20.73.02 41.5c.02 8.1 1.64 16.04 1.64 23.16a.4.4-84.9 0 0 .33.4l.35.06a.44.44 0 0 0 .51-.44q-.31-15.84.37-29.98c.66-13.6.28-27.08-.21-39.97-.38-10.2.07-20.64-.38-29.19a.16.15-44.3 0 0-.31 0m487.2 102.23 1.56 7.02a.05.05 0 0 0 .1-.01c1.3-9.42 1.17-16.42 1.07-28.64q-.04-4.5.08-18.19.22-23.93.5-71.98c.07-11.49-.39-27.4-.98-36.89a1.3 1.28-5.7 0 1 1.13-1.36q6.3-.79 13.4-.84 2.28-.01 4.06-1.5 7.3-.22 15.95-.12 2.78.03 4.01 1.83.84 1.23.83 4.44-.17 73.75-.04 157.91 0 2.52 2.17 4.21 1.39 1.1 4.66 1.07 12.09-.1 98.69-.01c3.37 0 6.2.73 6.37 4.35q.27 5.95.13 23.96-.04 5.2-4.77 5.19-48.28-.04-144.02.02-4.86 0-4.89-4.5-.15-22.98-.01-45.96m-638.83 4.75 1.37 6.54a.28.27-45.7 0 0 .54-.01q.86-4.46.9-9.26.29-30.98-.1-55.79c-.05-3.28-.51-6.8-1.09-10.17a.32.32 0 0 0-.64.03l-.98 11.41c-.23-19.96.45-44 .17-58.79q-.08-4.01-2.48-5.5a1.9 1.86 62.5 0 0-.89-.29q-3.08-.2-6.07-.21-13.94-.04-55.23-.44-6.17-.06-6.39-6.88-.41-12.56.37-22.67c.41-5.38 6.79-4.93 10.78-4.93q92.89.02 165.45.27 3.89.01 5.36 4.18a2.92 2.86-55.1 0 1 .16.95q.07 17.38-.07 23.25c-.14 5.59-3.92 6.17-8.96 6.22q-29.22.29-55.74-.06c-5.12-.07-6.12 2.99-6.14 7.74q-.45 76.55.03 149.71c.04 6.02.73 10.59-6.35 10.66q-18.03.17-27.28-.07c-4.67-.13-6.8-1.49-6.83-6.43q-.13-19.73.11-39.46m1464.51 141.3a41.7 40.37-163.5 0 1 51.45-26.87 41.7 40.37-163.5 0 1 28.51 50.55 41.7 40.37-163.5 0 1-51.45 26.87 41.7 40.37-163.5 0 1-28.51-50.55m66.22 12.59a26.84 26.84 0 0 0-26.84-26.84 26.84 26.84 0 0 0-26.84 26.84 26.84 26.84 0 0 0 26.84 26.84 26.84 26.84 0 0 0 26.84-26.84m-1098.19-.2c.05 5.07-1.94 7.03-7.1 6.7q-7-.45-18.4-1.6-5.63-.56-9.19 2.5c-3.57 3.07-4.42 9.68-2.58 13.86q1.85 4.18 6.61 5.34a2.87 2.83 51.8 0 0 .71.09q32.02.06 32.14.05c5.34-.12 5.93 3.72 4.66 7.91-1.14 3.77-3.94 4.93-7.99 4.95q-29.94.17-43.4.01-3.02-.04-4.48-2.15-.98-1.42-1.11-4.96-.63-16.2-.78-32.22t.16-32.22q.07-3.55 1.02-4.99 1.42-2.13 4.44-2.23 13.46-.42 43.39-.82c4.05-.05 6.87 1.05 8.09 4.8 1.35 4.17.83 8.02-4.51 8q-.12-.01-32.14.66a2.87 2.83-52.9 0 0-.7.1q-4.74 1.25-6.51 5.47c-1.76 4.21-.79 10.81 2.84 13.81q3.62 2.99 9.24 2.32 11.37-1.37 18.37-1.95c5.14-.43 7.18 1.49 7.22 6.57m51.56-32.74a6.77 6.77 0 0 1 6.73-6.81l28.78-.15a38.83 37.48-.3 0 1 39.03 37.28l.02 3.78a38.83 37.48-.3 0 1-38.63 37.68l-28.78.15a6.77 6.77 0 0 1-6.81-6.74zm14.74 11.89.38 42.92a5.4 5.4 0 0 0 5.45 5.35l10.67-.09a29.16 25.88-.5 0 0 28.94-26.14l-.02-1.96a29.16 25.88-.5 0 0-29.38-25.62l-10.68.09a5.4 5.4 0 0 0-5.36 5.45m1089.08 24.94q-5.05-6.63-10.42-13.19-1.02-1.25-2.15-1.34a1.72 1.69-87.5 0 0-1.83 1.71q-.01 34.6.04 36.69c.19 6.91-.46 11.96-8.36 11.37-4.78-.36-5.76-3.61-5.77-8.1q-.05-22.53-.1-60.13-.01-6.22 1.39-8.04c3.02-3.96 8.65-3.75 11.9.45q13.53 17.51 24.93 32.57 5.02 6.66 10.39 13.22 1.02 1.25 2.15 1.34a1.72 1.69-87.5 0 0 1.83-1.71q.01-34.6-.04-36.69c-.19-6.91.46-11.96 8.36-11.37 4.78.36 5.76 3.61 5.77 8.1q.05 22.53.1 60.13.01 6.22-1.39 8.04c-3.02 3.96-8.65 3.75-11.9-.45q-13.53-17.51-24.9-32.6m-196.73-43.37c9.82 0 19.14.11 28.04.72 7.82.53 7.56 10.65.23 11.41q-1.9.2-16.97.95c-4.66.23-5.37 3.32-5.19 7.64.58 14.48.98 34.75.28 51.83-.17 4.05-2.56 5.93-6.45 5.92s-6.28-1.88-6.44-5.93c-.68-17.08-.25-37.35.35-51.83.19-4.32-.52-7.41-5.18-7.65q-15.07-.77-16.97-.97c-7.32-.77-7.57-10.89.25-11.41 8.9-.6 18.22-.69 28.05-.68"/></g><g fill="#5eead4"><path d="M891.54 165.62q.05-10.27-.09-20.58-.18-13.02-.05-20.58.55-31.69 2.4-54.17.42-5.16 5.46-9.25 8.71 10.38 13.53 22.42 18.72 46.75 41.5 99.24 1.04 2.38 1.35 4.07a2.13 2.09-42.1 0 1-.06.99q-1.48 4.83-6.53 2.68-1.55-.66-53.59-23.41-1.42-.62-3.92-1.41m9.57 944.3a1.1 1.1 0 0 1-1.49.24c-34.65-23.83-65.94-53.77-88.69-88.81q-6.9-10.62-16.93-28.83-12.78-23.19-22.77-50.23-26.62-72-19.93-149.56 3.69-42.8 17.26-85.46.85-2.67.92-4.34a1.92 1.9-79.2 0 0-1.26-1.87q-2.14-.77-3.3.88-22.51 32.3-48.64 61.86c-7.38 8.35-13.71 14.58-19.76 21.21q-3.91 4.29-11.32 11.18l-11.66 10.84q-40.79 37.93-89.75 63.24-14.64 7.57-37.88 16.09-30.46 11.17-47.17 16.6c-33.86 10.98-70.52 12.4-106.24 9q-109.01-10.38-188.8-86.06-2.17-2.05-.54-4.13a1.7 1.7 0 0 1 1.95-.51q3.17 1.33 14.06 7.38 9.48 5.26 23.91 12.14 17.33 8.25 36.39 16.19 22.22 9.27 37.32 13.36 33.4 9.05 65.73 10.16c63.33 2.18 127.69-12.76 183.16-44.27 28.28-16.06 55.5-36.45 78.87-58.43q8.4-7.91 20-19.66c29.22-29.57 55.61-63.17 81.98-96.11q5.82-7.26 23.79-27.21 25.42-28.21 53.92-57.84 46.24-48.07 103.49-76.5c26.46-13.15 56.35-22.37 87.7-31.54 2.51-.74 6.64-1.99 8.04-4.96 15.21-32.26 18.64-68.8 7.35-102.76-8.2-24.67-23.01-46.21-41.87-64.4q-14.5-13.99-24.65-23.27-5.62-5.15-6.35-7.92-1.37-5.19 3.32-9.25c3.91-3.38 7.68-.03 11.07 2.43 27.64 20.01 51.49 46.4 66.24 77.55q27.41 57.89 6.94 118.71-7.23 21.5-11.46 34.68c-4.19 13.05-7.42 28.38-6.91 42.24 1.22 32.92 15.45 64.24 43.32 81.75q15.36 9.66 36.26 14.78c34.08 8.36 71.47 3.11 105.84-4.41 26.42-5.78 40.06-9.24 60.88-11.95q18.84-2.46 37.21-.05 22.23 2.92 40.53 8.49c18.11 5.51 37.58 13.68 56.21 23.13q6.11 3.1 22.85 11.41c11.92 5.91 31.59 17 44.1 22.55q25.16 11.16 54.42 12.99 3.76.24 18.98.78c2.41.08 4.47.71 5.81 2.88q2.31 3.75 1.02 8.05c-1.49 4.97-5.41 4.78-10.33 4.87q-37.56.73-74.12-12.96-14.74-5.52-23.32-9.62-22.35-10.68-41.61-21.93c-5.95-3.48-10.3-5.49-15.27-8.35q-3.33-1.93-7.99-4.01l-8.23-3.48q-34.44-14.59-71.47-15.37-33.53-.7-67.86 5.36-29.96 5.28-48.49 9.34c-12.91 2.83-23.52 4.5-34.89 4.17-54.47-1.59-112.11-17.21-132.62-74-6.62-18.33-8.25-38.62-7.8-58.6.07-3-.88-5.97-4.39-4.6q-60.17 23.53-108.76 67.22a341 341 0 0 0-28.16 28.34q-34.5 39.82-54.41 86.3c-22.8 53.24-30.58 111.08-23.11 168.93q8.04 62.29 39.76 117.94 11.12 19.51 22.74 32.9 15.24 17.57 17.87 20.51 8.49 9.49 14.89 15.74 9.03 8.83 15.04 15.62 5.47 6.18 4.25 14.29-2.52 16.72-5.07 28.5-.08.39-.12.43"/><path d="m944.52 469.3-51 23.97q-.77-26.85-1.42-53.75-1.88-78.17 1.44-147.83.45-9.52 1.71-18.5a.46.46 0 0 1 .9-.04q2.46 11.05 11.87 55.14 11.47 53.74 24.71 129.72.94 5.43 3.99 8.75c2.72 2.95 4.69 1.89 7.8 2.54m-214.83-20.07a337 337 0 0 0-52.06 29.92q-13.04 9.05-16 11-7.95 5.25-16.35 2.61c-4.56-1.43-8.65-3.49-9.67-8.14q-1.02-4.6 2.76-7.77c24.09-20.26 52.37-36.78 81.16-49.91 28.8-13.12 59.81-23.64 90.91-28.53q4.88-.77 7.68 3.01c2.84 3.82 1.71 8.26-.2 12.64q-3.52 8.07-12.69 10.63-3.42.96-18.8 4.86c-19.27 4.89-38.57 11.4-56.74 19.68M533.38 605.47c13.46-26.66 30.11-52.71 50.12-74.67q3.14-3.44 7.44-2.31c4.35 1.14 6.13 5.07 7.31 9.43q2.18 8.02-3.08 15.32-1.95 2.72-10.97 14.67a318 318 0 0 0-30.18 47.98 319 319 0 0 0-20.7 52.77q-4.26 14.37-5.29 17.55-2.76 8.56-10.5 11.57c-4.21 1.64-8.43 2.54-11.93-.29q-3.47-2.78-2.56-7.35c5.8-29.15 16.88-58 30.34-84.67m419.83-38.76 28.95 120.09c-7.31 6.94-14.52 13.32-22.13 20.69-12.01 11.66-28.4 25.23-37.64 33.16q-6.99 5.99-13.54 10.38c-3.78 2.54-8.27 4.26-12.49 6.32q-2.36-2.77-2.48-4.78-3.19-50.38-1.19-100.81.71-18 1.52-36.78 4.01-4.23 8.23-8.96 5.32-5.96 8.52-8.64c4.96-4.15 9.01-8.25 14.66-12.53q13.46-10.23 27.59-18.14M696.76 689.43q-2.34-1.4-1.33-3.96 3.93.77 1.33 3.96m549.65 238.02c-14.21 26.72-31.63 52.73-52.38 74.54q-3.25 3.42-7.58 2.18c-4.38-1.25-6.11-5.27-7.2-9.71q-2.03-8.17 3.45-15.45 2.03-2.71 11.43-14.62a323 323 0 0 0 31.61-47.94 322 322 0 0 0 22.1-52.99q4.63-14.45 5.74-17.66 2.98-8.6 10.89-11.49c4.29-1.56 8.6-2.38 12.08.56q3.45 2.89 2.42 7.5c-6.49 29.39-18.34 58.37-32.56 85.08"/><rect width="23.14" height="106.52" x="-11.57" y="-53.26" rx="11.37" transform="rotate(-35 1803.62 -423.1)"/><path d="M721.15 1102.94c-28.34-12.88-56.18-29.1-79.9-49q-3.72-3.12-2.72-7.65c1-4.57 5.02-6.6 9.5-8.01q8.26-2.61 16.09 2.54 2.91 1.92 15.74 10.81a333 333 0 0 0 51.26 29.37 331 331 0 0 0 55.83 19.29q15.14 3.83 18.5 4.76 9.03 2.51 12.5 10.44c1.88 4.31 3 8.67.21 12.44q-2.76 3.72-7.55 2.97c-30.6-4.78-61.12-15.08-89.46-27.96m340.26-.81c-27.38 12.45-56.86 22.4-86.42 27.03q-4.63.73-7.29-2.87c-2.7-3.64-1.62-7.85.2-12.02q3.35-7.66 12.07-10.09 3.25-.9 17.87-4.59a322 322 0 0 0 53.94-18.65c17.27-7.85 33.98-17.63 49.51-28.39q12.4-8.58 15.22-10.44 7.56-4.98 15.54-2.46c4.33 1.36 8.21 3.33 9.18 7.75q.96 4.37-2.63 7.38c-22.92 19.23-49.81 34.9-77.19 47.35"/></g><g fill="#5eead4"><path d="M1014.2 213.7c1.83-7.23 7.94-9.08 13.15-3.83 18.22 18.36 33.27 33.96 48.48 53.53 24.26 31.21 42.41 68.58 41.34 108.59q-.52 19.73-7.38 41.33-5.35 16.86-17.39 48.98-5.77 15.4-7.28 21.97c-3.29 14.27-3.57 27.59.08 42.08a67 67 0 0 0 39.25 45.46q25.71 10.69 52.58 10.17c35.72-.7 69.84-12.59 103.68-20.99q59.91-14.88 116.65 7.69 12.28 4.89 28.62 13.68c11.6 6.24 23.18 11.64 30.74 15.95q2.75 1.57 19.81 9.37 28.17 12.9 58.26 17.28c5.26.76 11.14.82 15.75 1.91 4.66 1.1 6.41 5.33 4.39 9.53q-2.51 5.21-8.17 5.38-15.53.46-35.52-2.98c-15.98-2.75-29.87-9.07-46.79-18.33q-27.6-15.12-45.41-23.75-9.75-4.73-25.18-10.81-39.94-15.74-82.84-15.31-2.67.02-8.5 1.48-73.66 18.44-77.33 19.32-31.14 7.42-62.79 4.7c-47.4-4.08-92.76-27.62-95.4-80.93-.86-17.53.16-35.7 6.75-51.66q.57-1.41 6.37-15.14c10.01-23.74 17.95-48.9 19.4-74.86q1.92-34.52-13.52-65.03c-4.79-9.46-11.37-19.43-18.25-28.56q-21.17-28.1-49.06-55.34c-3.01-2.94-5.61-6.48-4.49-10.88"/><path d="M1264.83 394.09c.36 3.73-.6 8.98 4.67 9.36q.76.06 4.4-1.84 5.28-2.76 11.13-2.07-13.65 17.27-26.89 34.71-4.37 5.76-7.21 6.99-4.88 2.11-10.52-1.4-15.09-9.37-30.48-19.07 6.08-3.3 8.24-9.22l1.48 3.99a3.3 3.14-77.9 0 0 .63 1.03q1.86 2.08 3.55 2.06 13.61-.12 21.98-8.13c6.16-5.9 11.48-12.07 19.02-16.41m15.09 295.2a2.68 2.67-47.6 0 1 .06 1.37q-.45 2.06-2.66 2.66c-14.33 3.91-20.28-8.75-24.53-19.47-1.21-3.05-1.65-7.37.54-10.25q2.96-3.9 7.91-3.14c4.78.72 10.02 1.37 11.67 6.47q3.99 12.42 7.01 22.36"/></g><g fill="#0f172a"><path d="M1304.5 518.82c-12.28 1.37-24.13 3.5-36.02 7.52q-11.91 4.02-16.41 5.36-18.53 5.49-37.78 6.35c-15.51.7-30.23-2.38-44.3-8.86q-7.67-3.53-15.64-6.67c-5.43-2.13-9.74-5.91-13.68-10.2-7.83-12.13-12-27.64-12.8-41.56q-.32-5.53 2.05-14.86 3.61-14.23 10.17-28.34 7.26-15.61 18.29-34.68a112 112 0 0 0 11.37-28.61c6.45-26.7 6.58-54.44-3.83-79.97q-3.77-9.25-12.19-24.63-5.93-10.83-14.6-23.21-15.38-21.96-36.77-43.32-5.68-5.68-2.48-12.77 1.4-3.12 4.53-4.5c4.31-1.9 8.08 1.54 10.92 4.72l12.19 13.63c26.01 29.08 50.44 62.39 60 100.47 8.88 35.36 4.49 74.36-14.25 106.31q-4.06 6.94-11.29 19.95c-8.19 14.74-12.91 28.21-14.39 46.54-1.51 18.64 5.54 39.2 22.49 48.92q4.71 2.7 5.49 3.2a3.82 3.31 67.5 0 0 .6.3q17.15 6.88 34.36 5.92 25.82-1.43 50.11-10.75l23.33-9.03q28.75-11.13 60.78-12.2 27.73-.92 53.56 8.13 8.69 3.05 11.59 4.21 7.98 3.19 14.92 5.85c3.04 1.17 5.49 2.85 8.17 3.54 2.69.7 5.02 2.66 7.82 3.33q.5.12 11.49 4.77 4.76 2.01 17.23 6.29 17.96 6.16 38.64 5.15 14.39-.7 18.12-1.05a3.6 3.43-37.6 0 1 1.34.14q6.21 1.91 6.17 8.79c-.03 5.61-3.25 7.92-8.72 8.5q-12.49 1.31-22.08.93c-26.92-1.07-54.95-9.47-79.54-20.19q-17.27-7.54-21.5-9.16-17.17-6.57-37.44-8.31-30.34-2.61-60.02 4.05"/><path d="M1218.17 411.55q-2.16 5.92-8.24 9.22-1.85-1.08-3.87-2.84c-4.32-3.76-3.14-10-.66-14.29l17.61-30.27q1.76-3.03 3.41-6.26 1.45-2.83 3.28-6.33 11.35-21.56 14.5-45.28c3.49-26.24-1.84-53.8-12.3-78.17-2.13-4.96-6.08-13.98-9.92-20.91q-5.33-9.6-7.06-12.61c-.6-1.04-1.95-5.34-1.56-6.94 1.09-4.48 6.69-6.75 10.89-5.16q1.9.72 4.88 4.28 9.33 11.18 14.53 22.3 8.01 17.13 12.57 34.38 4.81 18.16 5.77 36.23 1.8 33.82-9.62 67.57-1.9 5.62-5.37 11.68-4.08 7.13-6.71 11.15-6.45 9.86-22.13 32.25M552.72 421.9q.79.44 1.8.27 5.97-1 10.92-5.23 49.79-42.43 109.38-70.11 73.01-33.91 154.16-40.74 3.14-.26 5.49.43c4.92 1.46 3.38 12.89 2.25 15.77-1.53 3.88-6.2 5.49-10.44 6.27q-29.1 5.36-33.26 6.24-38.05 8.05-71.94 20.33-2.46.89-17.92 6.87-5.85 2.27-11.26 4.75c-10.15 4.67-16.94 7.42-24.92 11.91-6.43 3.62-12.17 6.05-18.12 9.73-5.27 3.26-16.2 9.44-23.67 14.38q-16 10.6-32.1 23.33c-6.44 5.1-18.08 14.71-26.37 22.67q-13.84 13.29-26.16 26.29-1.75 1.84-10.09 11.58-6.87 8.01-9.82 11.78-11.64 14.84-13.3 17.18-16.74 23.57-23.64 35.36-11.29 19.34-14.65 26.57c-4.32 9.32-7.74 16.28-11.41 25.14q-15.3 37.01-23.58 77.36-1.51 7.33-4.22 22.33c-.82 4.59-3.33 6.45-8.06 7.57l-14.69 3.5a2.14 2.12 50 0 1-1.4-.13c-4.03-1.86-3.16-4.48-2.54-8.84q8.6-60.56 32.61-116.46 2.04-4.76 3.82-8.22c1.88-3.66 3.05-7.23 5.02-11q10.89-20.76 16.54-30.13 14.98-24.8 31.19-45.58l6.44-8.27q2.29-3.02 3.3-4.04 2.78-2.84 3.5-3.86 2.74-3.91 19.83-22.15 5.43-5.79.83-12.99-7.42-11.62-12.89-21.37c-2.14-3.83-7.58-14.48-5.4-18.58 1.7-3.21 5.96-.36 8.22 1.11q2.18 1.42 4.78 2.83c6.22 3.39 17.8 10.65 28.74 15.99a2.48 2.45 55.4 0 0 1.26.24l1.55-.13a.52.45-27.7 0 1 .22.05m732.31-22.36q-5.85-.69-11.13 2.07-3.64 1.9-4.4 1.84c-5.27-.38-4.31-5.63-4.67-9.36 12-11.19 25.32-19.21 42.15-18.07q7.83.54 13.83 5.13c12.71 9.72 12.76 27.49 5.42 40.38-4.86 8.54-11.75 17.05-17.24 25.15a.45.12-75.1 0 0-.04.07l-1.96 4.76a1.01 1-44.6 0 0-.01.76q.91 2.32 3.27 1.85a78 78 0 0 0 8.92-2.34q16.92-5.48 28.84-6.49c17.13-1.45 33.38 1.17 49.95 4.56 3.16.65 5.51.75 9.32 1.07q19.52 1.64 32.66-12.74.87-.96 3.26-1.29c3.52-.5 6.75 2.98 6.42 6.27q-.78 8.01-6.1 14.89c-6.53 8.45-17.19 10.28-27.52 9.69q-35.54-2.01-49.99-2.44-21.76-.66-44.58 3.69c-5.28 1-12.71 3.44-16.57 4.65q-6.96 2.18-10.63 1.74c-7.8-.94-14.29-8.36-11.41-16.37 2.42-6.75 4.9-10.81 8.52-16.7q2.37-3.85 19.76-29.76 1.91-2.85 2.38-4.75c1.41-5.75-.76-9.13-5.1-12.56-1.36-1.08-4.66-1.52-6.41-1.42q-9.06.54-16.94 5.72m75.06 311.89a1.95 1.95 0 0 1-2.45-1.28l-7.19-22.8a21.74 9.76 72.5 0 1 2.77-23.67l1.53-.48a21.74 9.76 72.5 0 1 15.84 17.8l7.19 22.8a1.95 1.95 0 0 1-1.27 2.45zm-78.66 419.38c.88 1.38.84 3.03-.37 4.03q-1.44 1.18-3.74.25-.96-.39-8.74-3.79c-4.35-1.91-7.63-4.21-11.84-6.33-3.37-1.69-6.81-4.76-10.08-6.82q-2.5-1.58-5.29-3.98-8.11-6.96-9.02-7.97a1.66 1.63-18.9 0 0-1.13-.54q-2.78-.16-3.69.6-9.39 7.92-25.85 20.89-57.75 45.52-127.56 71.47-57.94 21.54-121.23 29.71-2.36.31-3.2-.17c-2.13-1.21-4.35-2.97-3.88-5.85q1.03-6.3 1.59-9.36c1.61-8.9 6.43-8.95 15.23-10.42q71.33-11.95 132.55-40.88 53.38-25.23 98.96-62.26 16.74-13.6 31.66-28.41 1.42-1.41 3.61-3.22c1.75-1.45 2.89-3.29 4.68-5.12q8.98-9.18 11.29-11.75 82.75-91.72 109.58-212.36c.71-3.22 1.3-9.38 2.77-11.83 2.29-3.84 4.94-5.86 9.45-7.56q5.62-2.12 8.35-3.04 5.92-2 7.06 3.88a3.23 3.11 43.9 0 1 .04 1q-16.1 122.72-93.37 218.76-6.72 8.35-18.71 21.89c-4.34 4.9-10.71 10.31-14.64 16.03-3.23 4.72-1.56 10.85 1.25 15.24q17.44 27.22 24.27 37.91M404.45 822.52q.81-2.33 3.45-2.72c17.15-2.54 22.29 12.96 25.73 25.97.98 3.7.89 8.77-2.05 11.81q-3.97 4.1-9.6 2.54c-5.44-1.5-11.43-2.98-12.63-9.12q-2.9-14.95-5.02-26.89a3 3-40.8 0 1 .12-1.59m251.26 168.6a.74.73 69 0 0 1.14.51l84.39-57.03a1.24 1.24 0 0 1 1.78.42q1.62 2.9 5.09 9.93 3.45 7-2.71 10.96-85.3 54.83-157.81 101.25a.92.84 21.2 0 1-.26.1c-2.59.44-4.55-1.2-3.71-3.96q.1-.32 1.85-2.83 56.66-80.98 134.23-192.04c2.13-3.05 6.58-1.55 7.24 1.87q1.44 7.47 7.66 41.65.82 4.47-.99 8.49-1.23 2.75-5.25 6.77l-71.96 71.93q-.85.85-.69 1.98"/><path d="M501.8 1133.79c-1.22-2.12 3.06-7.97 4.15-9.87q10.96-19.13 21.18-36.54c2.94-5.01 1.36-8.07-2.33-12.23-3.86-4.36-7.9-8.35-11.88-13q-6.31-7.37-8.96-10.67-11.53-14.33-22.59-30.87-23.07-34.52-42.09-72.39c-2.59-5.16-4.45-10.03 2.58-11.85q6.15-1.59 11.37-1.9 5.16-.3 8.57 3.93 2.01 2.49 6.07 10.74 11.61 23.64 28.62 48.65 16.43 24.15 31.24 41.26 6.18 7.14 14.84 16.71 6.8 7.52 10.74 11.26c6.19 5.88 10.11 10.14 15.5 14.82q19.8 17.22 22.51 19.37 2.44 1.95 16.53 12.62c8.12 6.15 20.34 13.92 26.19 17.96q4.35 3.01 11.27 6.97c10.09 5.77 17.86 10.61 27.91 15.62 9.12 4.53 14.88 7.67 19.08 9.07 2.19.73 4.21 2.11 6.23 2.79q2.49.84 4.08 1.67.15.08 7.64 3.33 4.14 1.79 7.73 3.11 19.54 7.14 26.91 9.46 23.14 7.28 47.2 12.35c13.1 2.77 24.09 4.29 38.21 6.5q5.31.83 6.29 6.25 1.16 6.39 2.1 12.06c.6 3.59-.39 6.63-3.99 7.3a3 3 0 0 1-1.12 0q-26.65-4.9-49.06-9.07-85.58-15.91-158.99-61.75-35.97-22.46-67.09-50.25a2.59 2.54-11.9 0 0-.72-.46q-4.31-1.8-7.37.17-38.31 24.68-41.5 26.69c-2.22 1.4-5.06 3.65-7.05.19m243.22 264.11q-1.78 1.49-4.06 1.5-7.1.05-13.4.84a1.3 1.28-5.7 0 0-1.13 1.36c.59 9.49 1.05 25.4.98 36.89q-.28 48.05-.5 71.98-.12 13.69-.08 18.19c.1 12.22.23 19.22-1.07 28.64a.05.05 0 0 1-.1.01l-1.56-7.02q.02-73.54.01-147.09 0-4.88 4.22-5.09 7.64-.37 16.69-.21m-507.81 50.16c.45 8.55 0 18.99.38 29.19.49 12.89.87 26.37.21 39.97q-.68 14.14-.37 29.98a.44.44 0 0 1-.51.44l-.35-.06a.4.4-84.9 0 1-.33-.4c0-7.12-1.62-15.06-1.64-23.16q-.07-20.77-.02-41.5.03-12.37 2.32-34.46a.16.15-44.3 0 1 .31 0M85.27 1555.04v-57.25l.98-11.41a.32.32 0 0 1 .64-.03 68 68 0 0 1 1.09 10.17q.39 24.81.1 55.79-.04 4.8-.9 9.26a.28.27-45.7 0 1-.54.01zm337.71-27.58.01 31.55q-1.76-.87-1.89-3.41-.83-16.41-.07-32.02.08-1.68 1.27-3.09a.21.21 0 0 1 .37.12zm-15.3 185.06q-5.05-6.67-10.44-13.26-1.02-1.25-2.15-1.34a1.73 1.7-87.5 0 0-1.84 1.71q-.04 34.73 0 36.82c.19 6.94-.47 12.01-8.4 11.41-4.79-.37-5.77-3.63-5.78-8.14q-.03-22.61-.04-60.34-.01-6.25 1.4-8.07c3.03-3.97 8.68-3.76 11.94.46q13.57 17.59 24.99 32.72 5.03 6.68 10.41 13.27 1.03 1.26 2.16 1.35a1.73 1.7-87.5 0 0 1.84-1.72q.04-34.72-.01-36.82c-.18-6.93.48-12 8.4-11.4 4.8.36 5.78 3.63 5.79 8.13q.03 22.61.04 60.35.01 6.24-1.4 8.07c-3.04 3.97-8.69 3.75-11.94-.47q-13.57-17.58-24.97-32.73m564.29 28.81c.81 1.46-.17 3.04-1.39 3.73a1.6 1.59-54.3 0 1-1.06.18q-6.14-1.02-14.46-2.86c-3.98-.88-9.09 3.08-11.99 4.42q-9.34 4.33-18.55 2.61-6.36-1.18-12.56-6.19-5.61-4.53-9.4-10.42-1.74-2.71-1.32-6.76.31-2.95 3.08-6.11 5.98-6.82 11.91-12.67c2.97-2.92 1.73-5.74-.51-9.2-4.89-7.56-5.67-15.42.47-22.47 6.16-7.06 16.62-8.57 25.67-6.28q6.52 1.64 9.57 6.38c4.77 7.43 2.4 17.48-3.78 23.11q-.98.89-5.79 3.69a1.98 1.92-2.6 0 0-.78.83q-.78 1.6-.4 3.54a1.19 1.16-73.6 0 0 .3.57l6.68 7.03a.71.68 79.8 0 0 .18.13q2.91 1.5 4.24 3.11a1.23 1.2-19.2 0 0 .94.44l2.61.02a.99.96-67.5 0 0 .7-.3q2.31-2.39 3.67-3.59c3.29-2.89 9.1-3.07 9.43 2.61a2.47 2.34-36.5 0 1-.19 1.07c-2.74 6.53-4.31 9.85-1.94 16.24 1.03 2.77 3.48 5 4.67 7.14m-30.1-56.1a10.4 7.43-18.2 0 0-12.2-3.8 10.4 7.43-18.2 0 0-7.56 10.3 10.4 7.43-18.2 0 0 12.2 3.8 10.4 7.43-18.2 0 0 7.56-10.3m-16.33 51.5q6.31 1.41 16.07-.48a2.92 2.78 22.4 0 0 .98-.38c5.44-3.43 2.57-7.63-1.06-10.57q-6.64-5.39-9.4-8.36a3.61 3.26-2.9 0 0-.76-.62q-4.12-2.5-9.33-.77c-6.74 2.25-8.14 11.19-4.09 16.2q3.23 4.01 7.59 4.98m391.21-3.4q6.01 3.04 13.57 3.21 4.33.11 6.75-1.11c7.74-3.9 6.65-9.77 7.06-18.08q.3-6.15 4.92-7.99c3.73-1.48 7.38.38 8.56 4.23q2 6.54 1.52 13.02-.47 6.44-4.98 11.82c-10.87 12.99-28.72 11.93-43.1 6.28q-7.98-3.13-12.79-7.63-8.97-8.4-11.45-21.16c-2.56-13.2 1.02-28.18 11.48-37.38q2.14-1.88 7.03-4.91c12.49-7.74 28.61-6.03 41.63-1.08q8.76 3.34 9.96 12.83.47 3.65-3.66 4.21a2.03 1.91-37.3 0 1-.96-.1q-9.69-3.53-18.05-6.24c-8.91-2.89-19.18-.13-25.96 6.18-8.66 8.06-9.68 20.24-4.57 30.65q4.33 8.83 13.04 13.25m-272.37-20.82q-5.04-6.64-10.4-13.21-1.02-1.25-2.15-1.34a1.72 1.69-87.4 0 0-1.83 1.7q-.06 34.6-.01 36.69c.17 6.91-.48 11.96-8.38 11.36-4.78-.37-5.76-3.62-5.76-8.11q-.02-22.53-.01-60.13 0-6.22 1.41-8.04c3.02-3.95 8.65-3.73 11.89.47q13.51 17.53 24.89 32.62 5 6.66 10.36 13.23 1.02 1.25 2.15 1.34a1.72 1.69-87.4 0 0 1.83-1.71q.07-34.6.02-36.69c-.18-6.91.48-11.96 8.38-11.35 4.78.36 5.75 3.61 5.76 8.1v60.14q0 6.22-1.4 8.03c-3.02 3.96-8.65 3.74-11.9-.47q-13.5-17.53-24.85-32.63m87.66-43.89c7.41-.05 8.88 4.2 11.66 10.38q11.46 25.44 26.03 59.09c1.89 4.36 3.14 8.38-2.14 10.09q-4.78 1.55-7.34-2.4-7.23-11.16-8.94-13.56-2.15-3.01-6.06-2.98l-12.78.1-12.78.08q-3.91.02-6.02 3.06-1.68 2.43-8.75 13.69-2.5 3.98-7.31 2.5c-5.3-1.63-4.11-5.67-2.28-10.06q14.1-33.85 25.2-59.45c2.7-6.22 4.11-10.49 11.51-10.54m-12.32 46.24a2.92 2.92 0 0 0 2.88 3.91l20.12-.91a2.92 2.92 0 0 0 2.51-4.16l-11.16-23.87a2.92 2.92 0 0 0-5.4.25zm-793.93 28.42c1.65 2.48-.44 4.54-2.91 4.77q-6.65.63-10.63-4.56-5.16-6.7-12.2-15.22-3.95-4.79-11.09-4.83-7.18-.03-11.63 5.64a3.61 3.59 58.7 0 0-.7 2.88q1.76 9.2 1.9 9.77c1.08 4.52-2.67 6.64-6.68 5.86-6.47-1.27-7.33-5.4-7.32-11.82q.05-44.32.03-50.17-.05-9.98.67-11.59 2.33-5.26 9.78-5.12 1.28.02 18.63.51 10.76.3 15.06 1.8c10.66 3.69 18.51 12.49 19.5 23.76q.72 8.15-4.5 16.31c-2.39 3.75-6.13 5.56-8.96 8.33q-2.83 2.77-.46 6.37 4.2 6.34 11.51 17.31m-48.68-54.45-.12 16.86a6.7 6.7 0 0 0 6.64 6.74l15.54.1a15.03 14.74.4 0 0 15.14-14.63v-.76a15.03 14.74.4 0 0-14.92-14.84l-15.54-.11a6.7 6.7 0 0 0-6.74 6.64"/><rect width="14.18" height="79.64" x="-7.09" y="-39.82" rx="6.53" transform="rotate(-.1 979062.54 -200660.7)"/><path d="M1207.75 1725.5q2.34-.61 2.88-1.34c1.74-2.38 2.4-5.38 3.46-7.9q11.33-26.97 16.13-39.06 2.23-5.61 3.95-6.73c3.16-2.06 9.82-.51 10.43 4.01q.2 1.46-1.1 4.67c-8.45 20.94-18.77 45.15-24.94 60.67q-1.89 4.74-3.47 6.21a8.7 8.7 0 0 1-11.45.59q-1.27-.99-2.95-4.37-7.71-15.48-9.68-20.13c-2.84-6.69-6.66-13.18-9.27-19.44-3.36-8.03-8.86-17.97-12.4-26.48q-.69-1.65-.72-2.7c-.07-2.6 3.08-4.64 5.25-4.69 5.89-.15 10.2 1.58 12.53 7.76q4.25 11.22 18.02 46.73.27.68 2.39 2.05a1.2 1.18 53.7 0 0 .94.15m-380.36 4.03-12.73-.01q-3.89 0-6.01 3.01-1.69 2.41-8.8 13.57-2.52 3.95-7.3 2.44c-5.26-1.66-4.05-5.67-2.2-10.03q14.27-33.61 25.49-59.03c2.73-6.17 4.17-10.41 11.54-10.41s8.81 4.24 11.54 10.41q11.23 25.41 25.51 59.02c1.86 4.35 3.07 8.36-2.2 10.03q-4.77 1.51-7.29-2.44-7.12-11.16-8.81-13.56-2.12-3.02-6.01-3.01zm-13.25-14.69c-.76 1.8-.54 3.89 1.79 3.9q13.41.07 19.17-.03c4.57-.08 5.16-2.77 3.59-6.84q-8.06-20.83-8.32-21.41c-2.07-4.71-5.61-1.45-6.84 1.63q-4.21 10.61-9.39 22.75"/><rect width="13.72" height="79.18" x="-6.86" y="-39.59" rx="5.75" transform="rotate(.3 -325676.42 242200.74)"/><rect width="15.44" height="78.34" x="-7.72" y="-39.17" rx="5.99" transform="rotate(1.1 -88207.5 80372.98)"/><path d="M148.33 1697.89q-.56.15-1.11 1.11-7.46 13.23-19.05 32.71c-.98 1.65-2.15 4.22-3.65 5.13-3.21 1.93-5.96-.28-7.81-3.13-8.2-12.65-13.38-21.27-20.49-31.6a1.59 1.55-8.4 0 0-.84-.61q-1.42-.43-2.42 1.19a1.1 1.04 61.8 0 0-.15.55q-.01 37.87-.03 39.01c-.06 5.05-3.07 7.66-7.86 5.79q-5.55-2.17-5.66-8.55-.2-12.33.01-60.94.02-4.37.95-5.87 1.72-2.77 4.93-3.33c3.4-.6 6.04 1.89 7.63 4.38q20.27 31.68 26.59 41.4.94 1.44 2.18 2.08a2.36 2.36 0 0 0 2.96-.67q1.35-1.78 2.5-3.79 11.53-20.07 22.62-39.14c3.82-6.58 13.46-4.26 13.42 3.4q-.15 26.97.07 62.49.03 4.26-.87 5.82c-2.06 3.56-6.58 3.36-9.83 1.28-2.83-1.82-2.49-7.85-2.48-11.09l.07-36.21a1.42 1.34 83.2 0 0-1.68-1.41M214 1729.4l-12.68-.02q-3.88-.01-5.99 2.99-1.68 2.39-8.79 13.5-2.52 3.93-7.27 2.42c-5.24-1.67-4.03-5.66-2.18-10q14.26-33.45 25.48-58.75c2.73-6.14 4.17-10.37 11.51-10.36s8.77 4.24 11.48 10.39q11.15 25.33 25.32 58.82c1.84 4.34 3.05 8.34-2.2 9.99q-4.76 1.5-7.26-2.44-7.08-11.13-8.76-13.52-2.1-3.01-5.98-3.01zm-12.79-15.29c-.68 1.77-.4 3.8 1.87 3.73q13.04-.35 18.64-.63c4.44-.23 4.93-2.86 3.28-6.77q-8.51-20.01-8.78-20.56c-2.16-4.52-5.5-1.23-6.6 1.8q-3.76 10.45-8.41 22.43m486.68 15.14-12.67-.07q-3.88-.02-6 2.97-1.69 2.38-8.84 13.46-2.52 3.92-7.27 2.39c-5.23-1.68-4-5.67-2.14-10q14.37-33.38 25.68-58.63c2.74-6.13 4.19-10.34 11.54-10.3 7.33.03 8.74 4.26 11.43 10.42q11.05 25.35 25.1 58.87c1.82 4.35 3.01 8.35-2.24 9.98q-4.76 1.48-7.25-2.47-7.04-11.14-8.7-13.54-2.1-3.01-5.97-3.03zm-11.93-16.95a4.6 4.6 0 0 0 4.42 6.13l15.27-.29a4.6 4.6 0 0 0 4.18-6.3l-8.02-20.14a4.6 4.6 0 0 0-8.61.17zm730.11 17.64-12.75-.06q-3.9-.01-6.04 2.99-1.7 2.4-8.88 13.56-2.55 3.95-7.32 2.42c-5.27-1.7-4.04-5.71-2.16-10.07q14.44-33.61 25.8-59.03c2.76-6.18 4.22-10.42 11.61-10.39s8.8 4.29 11.51 10.48q11.15 25.52 25.31 59.25c1.84 4.37 3.04 8.4-2.25 10.05q-4.78 1.49-7.29-2.48-7.09-11.21-8.77-13.63-2.11-3.03-6.02-3.04zm-10.89-14.38c-.62 1.69-.33 3.6 1.81 3.51q12.31-.47 17.6-.8c4.19-.25 4.63-2.75 3.02-6.42q-8.24-18.81-8.5-19.33c-2.09-4.24-5.21-1.11-6.22 1.77q-3.44 9.92-7.71 21.27m-638.34 31.92c-3.86.03-6.25-1.82-6.44-5.83-.81-16.95-.55-37.07-.07-51.45.15-4.29-.57-7.35-5.2-7.55q-14.96-.64-16.85-.83c-7.28-.7-7.61-10.75.16-11.33 8.82-.66 18.07-.83 27.82-.9s19-.04 27.84.49c7.77.46 7.59 10.51.32 11.32q-1.88.22-16.83 1.08c-4.63.27-5.31 3.34-5.09 7.63.69 14.37 1.25 34.48.69 51.44-.13 4.02-2.49 5.9-6.35 5.93"/></g></svg>