<svg xmlns="http://www.w3.org/2000/svg" viewBox="0 0 64 64"><g fill="#FFFFFF" stroke="none"><path d="M32 4 L34 30 L32 32 L30 30 Z"/><path d="M60 32 L34 34 L32 32 L34 30 Z"/><path d="M32 60 L30 34 L32 32 L34 34 Z"/><path d="M4 32 L30 30 L32 32 L30 34 Z"/></g><g fill="#5EEAD4" opacity="0.9"><path d="M32 14 L33.2 31 L32 32 L30.8 31 Z"/><path d="M50 32 L33 33.2 L32 32 L33 30.8 Z"/><path d="M32 50 L30.8 33 L32 32 L33.2 33 Z"/><path d="M14 32 L31 30.8 L32 32 L31 33.2 Z"/></g><circle cx="32" cy="32" r="2" fill="#5EEAD4"/></svg>
